<svg xmlns="http://www.w3.org/2000/svg" width="436.75" height="698.66" viewBox="0 0 436.75 698.66">
  <defs>
    <style>
      .cls-1 {
        fill-rule: evenodd;
      }
    </style>
  </defs>
  <path id="おかげさまで鎌倉と言えば_鳩サブレーと言われるほど_初代が生み出した明治生まれの_鳩サブレーは地元鎌倉を中心に_皆さまにご" data-name="おかげさまで鎌倉と言えば 鳩サブレーと言われるほど、 初代が生み出した明治生まれの 鳩サブレーは地元鎌倉を中心に、 皆さまにご" class="cls-1" d="M2151.76,2534.41a14.532,14.532,0,0,1,1.14-1.1c3.46,3.65,4.41,4.67,6.04,6.42l4.03-1.59c0.04-4.64.04-5.32,0.07-11.36a16.931,16.931,0,0,1,5.78-1.33,4.98,4.98,0,0,1,5.28,5.05c0,2.66-1.56,4.03-2.93,4.03-1.17,0-1.48-.99-1.93-2.55l-3.54,1.41c0.54,2.77,1.07,5.39,5.25,5.39,4.06,0,7.1-3.68,7.1-8.36,0-4.75-3.27-8.66-9.16-8.66a21.324,21.324,0,0,0-5.85.87l0.04-3.76a32.959,32.959,0,0,0,5.93-1.63v-4.33a23.981,23.981,0,0,1-5.85,1.97c0.04-.72.15-4.44,0.3-4.67a3.654,3.654,0,0,0,.65-0.72c0-.19,0-0.46-1.07-0.61l-4.21-.57c0.03,2.47.03,2.81,0.07,7.11-1.1.07-1.67,0.11-2.62,0.11a31.308,31.308,0,0,1-3.72-.19l0.57,4.29a36.516,36.516,0,0,0,5.77-.19l0.04,4.9a108.616,108.616,0,0,0-9.5,5.82Zm7.18,0.31a33.081,33.081,0,0,1-3.46-3.58,40.222,40.222,0,0,1,3.46-2.31v5.89Zm22-16.08a27.992,27.992,0,0,0-7.49-4.29l-2.47,3.34a22.056,22.056,0,0,1,7.49,4.34Zm-0.57,48.68c0-1.37-.95-5.85-5.93-11.17l-3.15,2.28c2.09,2.39,4.22,6.19,4.22,7.37,0,0.91-.88.99-2.51,1.14l2.58,3.92C2178.01,2570.4,2180.37,2569.49,2180.37,2567.32Zm-9.01-1.67c0-2.32-.41-6.54-5.58-6.54a17.855,17.855,0,0,0-3,.31c0.26-1.44.53-2.77,0.72-4.14,0.04-.38.11-0.42,0.8-0.84a0.693,0.693,0,0,0,.49-0.53,1.289,1.289,0,0,0-1.06-.61l-4.64-.64a39.916,39.916,0,0,1-.83,7.59c-1.68.27-5.17,0.92-7.94,1.14l1.52,4.6a46.659,46.659,0,0,1,5.39-1.63c-2.24,7.22-4.18,10.6-7.52,14.85l4.33,1.94a63,63,0,0,0,7.86-17.7,13.748,13.748,0,0,1,2.17-.19c2.74,0,3.15,1.21,3.15,3.23a22.562,22.562,0,0,1-2.31,9.46,2.344,2.344,0,0,1-2.28.95,10.707,10.707,0,0,1-3.42-.61l0.53,4.6a24.275,24.275,0,0,0,3.27.22,5.892,5.892,0,0,0,5.69-2.92C2170.72,2574.69,2171.36,2568.8,2171.36,2565.65Zm11.82,28.81a18.675,18.675,0,0,0-2.36-3.54l-1.89,1.29a20.85,20.85,0,0,1,2.39,3.54Zm-4.22.76a17.148,17.148,0,0,0-2.31-3.39l-1.9,1.33a17.311,17.311,0,0,1,2.31,3.35Zm0.31,9.42-0.15-4.33a16.919,16.919,0,0,1-5.13,1.78c-0.04-.83-0.42-5.16-0.42-5.32a1.15,1.15,0,0,1,.38-0.68,1.092,1.092,0,0,0,.3-0.53c0-.46-0.61-0.5-0.99-0.5l-4.33-.11a37.875,37.875,0,0,1,1.03,8.02,37.3,37.3,0,0,1-5.66.38c-0.8,0-1.37,0-2.66-.08l0.87,4.37a54.933,54.933,0,0,0,7.71-.53v1.63a21.354,21.354,0,0,1-5.16,14.82l4.18,2.2a28.434,28.434,0,0,0,4.9-13.98,46.081,46.081,0,0,0,.15-5.55A35.879,35.879,0,0,0,2179.27,2604.64Zm-18.92,9.95-2.66-1.86a21.108,21.108,0,0,1-1.64,3.53,26.039,26.039,0,0,1-.64-6.68c0-5.89,1.06-12.01,1.82-12.62a1.05,1.05,0,0,0,.61-0.6c0-.35-0.72-0.57-1.1-0.69l-3.84-1.1a67.59,67.59,0,0,0-1.52,13.34c0,9.38,2.01,13.9,3,16.11l3.42-.65A34.2,34.2,0,0,1,2160.35,2614.59Zm16.07,41.36a38.269,38.269,0,0,1-7.34-10.11,34.9,34.9,0,0,0,5.93-2.77l-1.9-3.61a22.238,22.238,0,0,1-5.58,3.04,26.794,26.794,0,0,1-1.6-4.52c0-.23.5-0.99,0.5-1.18,0-.5-1.07-0.27-1.33-0.23l-3.84.57a52.446,52.446,0,0,0,2.47,6.65,46.7,46.7,0,0,1-7.94,1.59,18.24,18.24,0,0,1-3,0l1.93,3.99a43.224,43.224,0,0,0,10.64-2.24,42,42,0,0,0,3.57,5.89,25.718,25.718,0,0,0-4.63-.64c-4.18,0-8.97,2.31-8.97,7.82a6.985,6.985,0,0,0,1.48,4.45c2.66,3.42,7.83,3.61,10.03,3.61a31.755,31.755,0,0,0,6.01-.42l-0.31-4.29a29.449,29.449,0,0,1-5.85.64c-4.44,0-6.99-1.18-6.99-4.1,0-2.59,2.55-4.11,5.59-4.11a14.609,14.609,0,0,1,8.7,3.2Zm0.49,49.8a31.671,31.671,0,0,0-9.61-4.29c-0.12-2.24-.12-2.62-0.19-4.52a79.758,79.758,0,0,0,8.13-.95v-4.14c-3.5.64-4.9,0.87-8.21,1.29v-4.48c1.9-.04,5.44-0.12,9.65-0.12l0.16-4.03c-3.58.27-4.87,0.35-9.73,0.57,0.04-1.97.07-2.69,0.07-2.73a1.25,1.25,0,0,1,.5-0.68,0.833,0.833,0,0,0,.49-0.54c0-.26-0.23-0.38-0.95-0.45l-4.63-.46,0.11,5.05c-3.38.08-5.43,0.16-9.76,0.16l0.07,4.1c3.27-.38,5.44-0.53,9.81-0.72l0.07,4.75c-0.87.07-1.37,0.07-2.62,0.07-0.65,0-1.44,0-1.44-.53a2.34,2.34,0,0,1,1.25-1.4l-2.17-1.87c-1.48,1.07-4.06,2.85-4.06,4.72,0,1.48,1.75,2.73,5.24,2.73,1.1,0,3.19-.08,3.88-0.11l0.07,3.64-1.06-.03c-8.55-.31-8.93,4.1-8.93,5.2,0,3.08,3.27,4.94,8.51,4.94,4.87,0,5.78-1.52,5.93-5.39a28.514,28.514,0,0,1,6.95,3.76Zm-13.83-1.33c0.04,2.13-.11,2.82-2.58,2.82-0.46,0-2.89,0-2.89-1.3,0-.98,1.22-1.63,3.69-1.63A10.5,10.5,0,0,1,2163.08,2704.42Zm17.02,30.41a16.865,16.865,0,0,0-3.15-2.89l-1.6,1.82a17.433,17.433,0,0,1,3.16,2.89Zm-3.07,3.45a16.656,16.656,0,0,0-3.16-2.92l-1.56,1.82a16.655,16.655,0,0,1,3.12,2.93Zm1.25-9.91v-4.41c-7.18,2.2-18.96,3.12-27.17,3.04l0.65,4.25c3.8-.53,9.38-0.98,14.48-1.4a28.331,28.331,0,0,0-5.02,5.77,13.862,13.862,0,0,0-2.58,7.57,9.48,9.48,0,0,0,2.81,6.83c3.08,3.08,7.33,3.88,9.34,4.22l1.49-4.63a11.991,11.991,0,0,1-6.69-1.94,6.046,6.046,0,0,1-2.74-4.94c0-2.89,1.83-6.31,4.64-9.12C2172.31,2728.75,2176.49,2728.48,2178.28,2728.37Zm2.96,65.47a25.525,25.525,0,0,1-5.58-6.01h4.25v-4.97h1.26v-2.97h-1.26v-4.67h-5.35v-1.48h6.64v-3.23h-4.74c0.45-.84,1.1-2.32,1.48-3.15a3.182,3.182,0,0,1,.53-0.31,0.434,0.434,0,0,0,.23-0.42,0.936,0.936,0,0,0-.65-0.49l-3.57-1.06a31.526,31.526,0,0,1-2.05,5.43h-5.25l2.21-1.14a35.684,35.684,0,0,0-3.19-4.33l-3.35,1.78a20.439,20.439,0,0,1,2.63,3.69h-3.61a14.035,14.035,0,0,1-3.8-3.23,2.9,2.9,0,0,0,.38-0.65,1.013,1.013,0,0,0-.92-0.72l-3.45-.87a19.1,19.1,0,0,1-6.54,7.37l3.12,2.47a2.23,2.23,0,0,0,.3-0.31v1.98h2.59v1.86h-4.18v3.57h4.18v9.01a32.053,32.053,0,0,1-5.21.49l0.68,4.07c0.12,0.57.27,0.76,0.54,0.76,0.19,0,.26-0.08.64-0.61,0.19-.27.31-0.3,1.22-0.49,0.87-.19,4.75-0.95,5.51-1.14,2.01-.46,2.92-0.73,3.68-0.95a8.9,8.9,0,0,1-2.58,1.55l3.11,2.97a25.022,25.022,0,0,0,4.68-5.36v5.62h3.42v-10.07h1.82v10.07h3.5v-6.19a18.7,18.7,0,0,0,4.14,4.75Zm-15.42-8.97h-3.16v2.96h2.36a17.72,17.72,0,0,1-3.84,4.83l0.31-3.38a22.374,22.374,0,0,1-4.15,1.02v-1.93l2.51,1.02a21.672,21.672,0,0,0,1.67-4.41,0.859,0.859,0,0,0,.76-0.41,0.685,0.685,0,0,0-.64-0.57l-3.16-1.03a12.881,12.881,0,0,1-1.14,3.69v-4.68h3.8v-3.57h-3.57v-1.86h2.93v-3.57h-0.95l1.75-1.67v2.43h4.52v1.48h-3.54v2.96h3.54v1.71h-3.76v2.97h3.76v2.01Zm5.24,0h-1.82v-2.01h1.82v2.01Zm0-4.98h-1.82v-1.71h1.82v1.71Zm0-4.67h-1.82v-1.48h1.82v1.48Zm5.4,4.67h-1.9v-1.71h1.9v1.71Zm0,4.98h-1.9v-2.01h1.9v2.01Zm-17.94-11.89h-5.81a27.7,27.7,0,0,0,2.77-3.27A24.115,24.115,0,0,0,2158.52,2772.98Zm-5.16,16.18a40.43,40.43,0,0,0-1.18-6l-3.23.76a28.833,28.833,0,0,1,.91,5.97Zm25.03,52.82v-9.76h-21.43c0.08-.53.19-1.33,0.27-1.79h19.72v-10.9h-23.48c0,1.1.04,3.23,0.04,4.6,0,7.59-.8,10.98-4.79,15.35l3.65,2.09a18.69,18.69,0,0,0,4.44-8.74v9.15h4.26v-0.87h13.18v0.87h4.14Zm-5.51-18.2h-15.46c0.04-.6.04-1.14,0.04-1.44h15.42v1.44Zm0,4.11h-15.46c0-.76.04-0.84,0.04-1.45h15.42v1.45Zm1.37,10.03h-13.18v-2.7h13.18v2.7Zm7.9-22.65a34.63,34.63,0,0,1-13.6-6.04,0.487,0.487,0,0,0,.23-0.42,0.8,0.8,0,0,0-.8-0.49l-4.75-.3c-4.9,5.13-10.98,6.65-15.27,7.44l2.74,3.61a35.781,35.781,0,0,0,7.59-2.66v1.86h14.18v-2.05a37,37,0,0,0,6.99,2.62Zm-11.7-.07h-9.84a27.266,27.266,0,0,0,4.68-3.42A30.588,30.588,0,0,0,2170.45,2815.2Zm5.7,66.8v-4.87a49.259,49.259,0,0,1-11.74,1.71c-3.99,0-6.99-1.33-6.99-4.06,0-2.55,2.81-4.49,4.52-5.55a57,57,0,0,1,14.06-6l-1.41-4.64c-4.67,2.21-5.16,2.43-9.53,4.49a4.663,4.663,0,0,1-2.21-2.59c-1.02-2.85-1.06-6.87-1.1-9l-4.86.72c1.21,7.26,1.4,8.36,1.94,9.61a11.629,11.629,0,0,0,2.24,3.42c-4.18,2.47-7.87,4.9-7.87,9.65a7.229,7.229,0,0,0,3.88,6.5c1.9,0.99,3.87,1.52,8.36,1.52A68.373,68.373,0,0,0,2176.15,2882Zm-3.46,39.67h-15.46v-3.69h15.46v3.69Zm3.31-8.4v-3.42h-22.15v3.42H2176Zm1.37,13.49v-12.04h-24.81v12.04h4.67v-1.4h15.46v1.4h4.68Zm-1.41-28.34v-3.46h-22.19v3.46h22.19Zm5.17,4.97v-3.6h-32.45v3.6h32.45Zm-5.17,4.68v-3.23h-22.19v3.23h22.19Zm-6.38,30.29a31.16,31.16,0,0,1-9.69-1.41l-0.23,4.37c2.74,0.87,4.98,1.02,9.73,1.02Zm8.51,25.98a19.081,19.081,0,0,1-5.51.8c-2.17,0-2.7-.57-2.7-2.09,0-.72.38-4.25,0.38-5.05a2.552,2.552,0,0,0-2.54-2.59,10.393,10.393,0,0,0-1.9.31c3.83-4.07,4.25-4.52,7.63-8.13l-2.47-3.27a46.4,46.4,0,0,1-14.09,2.85,19,19,0,0,1-2.7-.15l0.99,3.91a41.013,41.013,0,0,0,11.06-1.71c-1.71,2.28-3.12,4.14-6.2,7.68-3.57,4.06-5.62,6.11-8.43,8.81l3.49,2.66c1.67-1.97,4.3-5.05,6.31-7.29,0.99-1.07,1.75-1.87,2.85-1.87a1.659,1.659,0,0,1,1.71,1.79c0,0.57-.15,3.27-0.15,3.88,0,3.22,1.67,4.29,5.54,4.29a38.254,38.254,0,0,0,6.46-.57Zm-0.04,22.5a18.255,18.255,0,0,1-4.56,1.29c0.27-3.95.31-4.36,0.53-4.55a3.4,3.4,0,0,1,.5-0.31,0.289,0.289,0,0,0,.07-0.23c0-.22-0.03-0.38-0.87-0.53l-4.07-.72c-0.03,1.75-.11,5.09-0.15,6.95-0.8.08-2.09,0.19-3.3,0.19a26.907,26.907,0,0,1-3.54-.26l0.04,3.76c0.95,0.04,2.21.07,3.35,0.07a33.2,33.2,0,0,0,3.45-.15c0.08,2.74.12,3.42,0.46,8.59a11.68,11.68,0,0,0-2.55-.3c-3.38,0-6.34,1.25-6.34,4.82,0,5.28,6.53,5.28,7.63,5.28,4.75,0,5.36-1.56,5.44-4.75a13.071,13.071,0,0,1,4.1,2.7l1.98-3.42a23.222,23.222,0,0,0-6.27-3.46,90.6,90.6,0,0,1-.57-10.03,24.872,24.872,0,0,0,4.67-1.06v-3.88Zm-7.86,17.63c0.07,1.75.11,2.59-2.47,2.59-2.24,0-3.19-.69-3.19-1.56,0-.91,1.1-1.6,2.84-1.6A8.149,8.149,0,0,1,2170.19,3004.47Zm-15.24-1.71a16.658,16.658,0,0,1-.15-2.5,64.67,64.67,0,0,1,1.71-14.18c0.23-.83.38-1.4,0.83-1.59,0.54-.19.73-0.27,0.73-0.53a1.374,1.374,0,0,0-.92-0.73l-3.64-1.48a65.328,65.328,0,0,0-2.24,17.33,40.309,40.309,0,0,0,1.48,11.66l3.19-.64a24.682,24.682,0,0,1,2.96-7.87l-2.39-1.67Zm26.29-17.82a17.6,17.6,0,0,0-2.96-2.81l-1.56,1.67a17.607,17.607,0,0,1,2.93,2.74Zm2.66-2.73a17.106,17.106,0,0,0-3.08-3l-1.55,1.63a23.665,23.665,0,0,1,3.04,2.96Zm-102.62-455.93v-2.66H2066.5v-1.33h12.35v-11.4h-7.41a9.009,9.009,0,0,1,.65-1.55,3.032,3.032,0,0,0,.91-0.73c0-.34-0.5-0.38-0.88-0.41l-3.99-.46c-0.15.53-1.32,2.7-1.51,3.15h-3.92v17.41l-2.01-.95c-0.15.83-.31,1.86-0.76,1.86s-0.42-.12-0.34-1.22l1.02-13.56-4.67.3c0.07-1.37.15-3.72,0.15-3.87,0-.95-0.08-1.49.46-1.83a0.894,0.894,0,0,0,.53-0.53c0-.3-0.5-0.34-1.07-0.38l-3.95-.34c0.19,3.65.19,5.01,0.19,7.18l-3.34.19,0.15,3.49,3.04-.15c-0.83,9.5-2.92,13.6-5.74,17.94l4.18,1.17c3.92-6.84,4.79-15.31,5.17-19.26l1.06-.08c-0.26,3.99-.72,10.26-0.87,11.67a11.292,11.292,0,0,0-.11,1.48,1.979,1.979,0,0,0,2.09,2.24h3.04a12.841,12.841,0,0,1-2.32,4.41l3.53,1.82a23.855,23.855,0,0,0,2.36-6.34,0.509,0.509,0,0,0,.53-0.42,0.959,0.959,0,0,0-.72-0.57l-1.45-.57a4.128,4.128,0,0,0,.42-1.29h13.83c0,0.23-.11,4.86-1.29,5.7-0.57.42-.84,0.42-3.34,0.34l1.52,3.76a7.345,7.345,0,0,0,4.37-1.02c2.39-1.79,2.81-10.57,2.84-11.74h-14.7v-1.45h14.78Zm-6.46-11.02h-8.32v-1.59h8.32v1.59Zm0,4.11h-8.32v-1.6h8.32v1.6Zm0.34,15.19a11.387,11.387,0,0,0-.87-3.11l-2.2.45a17.723,17.723,0,0,1,.64,3.46Zm-3.45,1.64a14.975,14.975,0,0,0-.84-4.07l-2.2.27a19.428,19.428,0,0,1,.49,4.56Zm-3.54,1.25a21.816,21.816,0,0,0-.72-4.9l-2.47.04a18.9,18.9,0,0,1,.23,3.57,13.857,13.857,0,0,1-.08,1.82Zm11.4,26.41v-4.33h-6.38v-5.73a1.1,1.1,0,0,1,.42-0.5,0.7,0.7,0,0,0,.34-0.45c0-.46-0.88-0.57-1.18-0.61l-3.91-.53c0.07,2.39.07,4.94,0.07,7.82h-7.18v-5.32a0.76,0.76,0,0,1,.5-0.57,0.456,0.456,0,0,0,.3-0.38c0-.38-0.27-0.41-1.14-0.53l-4.18-.45v7.25h-7.03v4.33h7.03v8.7h4.52v-8.7h7.18c-0.15,8.51-2.31,12.39-9.19,16.15l3.11,2.97c7.37-4.49,9.88-8.29,10.3-19.12h6.42Zm2.39,30.52a20.352,20.352,0,0,0-3.22-3.46l-1.87,1.67a16.548,16.548,0,0,1,3.12,3.42Zm-5.69.15a21.239,21.239,0,0,0-3.16-3.34l-1.86,1.67a21.369,21.369,0,0,1,3.15,3.34Zm2.16,5.97-3.72-3.5a2.526,2.526,0,0,1-1.26.61h-21.5v4.41h20.25c-4.45,13.1-13.07,17.51-17.29,19.49l3.99,3.27a33.83,33.83,0,0,0,11.13-9.01,45.311,45.311,0,0,0,6.92-13.37A4.787,4.787,0,0,1,2078.43,2600.5Zm1.67,51.87-2.31-4.18a52.675,52.675,0,0,1-9.09,7.82,27.506,27.506,0,0,1-9.34,4.3v-19.08c0-.15.04-0.19,0.61-0.64a0.709,0.709,0,0,0,.38-0.53c0-.38-0.76-0.5-1.03-0.54l-4.52-.57v25.12l2.58,2.62C2065.4,2664.11,2074.37,2658.75,2080.1,2652.37Zm-11.78,30.51c0-.34-0.34-0.53-1.25-0.61l-4.75-.49v27.81h5.13v-25.65a0.913,0.913,0,0,1,.42-0.45A0.777,0.777,0,0,0,2068.32,2682.88Zm7.83,70.3v-4.87a49.259,49.259,0,0,1-11.74,1.71c-3.99,0-6.99-1.33-6.99-4.06,0-2.55,2.81-4.49,4.52-5.55a57,57,0,0,1,14.06-6l-1.41-4.64c-4.67,2.21-5.16,2.43-9.53,4.49a4.663,4.663,0,0,1-2.21-2.59c-1.02-2.85-1.06-6.87-1.1-9l-4.86.72c1.21,7.26,1.4,8.36,1.94,9.61a11.629,11.629,0,0,0,2.24,3.42c-4.18,2.47-7.87,4.9-7.87,9.65a7.229,7.229,0,0,0,3.88,6.5c1.9,0.99,3.87,1.52,8.36,1.52A68.373,68.373,0,0,0,2076.15,2753.18Zm-3.46,39.67h-15.46v-3.69h15.46v3.69Zm3.31-8.4v-3.42h-22.15v3.42H2076Zm1.37,13.49V2785.9h-24.81v12.04h4.67v-1.4h15.46v1.4h4.68Zm-1.41-28.34v-3.46h-22.19v3.46h22.19Zm5.17,4.97v-3.6h-32.45v3.6h32.45Zm-5.17,4.68v-3.23h-22.19v3.23h22.19Zm3.88,47.27a9.706,9.706,0,0,0-9.81-9.84,13.787,13.787,0,0,0-7.25,2.39,34.275,34.275,0,0,1,1.86-2.89l-2.36-2.05-1.17.42a11.614,11.614,0,0,1,.26-3.87,4.1,4.1,0,0,0,.76-0.88c0-.34-0.68-0.42-1.02-0.45l-4.07-.38c0.15,1.97.11,3.98,0.08,6.72-2.93.72-4.45,1.03-5.89,1.29l0.68,4.94c1.22-.57,2.13-0.91,5.13-2.01l-0.08,2.58c-4.55,6.46-5.09,7.18-6.91,9.31l3.72,2.77c1.18-1.9,1.86-2.92,3.08-4.63-0.11,4.41-.19,5.89-0.42,10.07l4.52-.38c-0.07-2.7-.26-5.93-0.22-11.06l0.03-3.46c2.93-3,6.08-4.44,8.67-4.44a5.875,5.875,0,0,1,6,5.92c0,2.59-1.82,4.83-3.04,5.93a11.193,11.193,0,0,1-6.12,3l3,3.84C2072.05,2838.41,2079.84,2835.68,2079.84,2826.52Zm0.3,51.22-1.18-4.25c-1.55,2.2-3,2.88-4.06,2.88-1.03,0-1.41-.41-1.41-2.5a53.387,53.387,0,0,1,.38-5.36c0.5-5.09.53-5.51,0.53-6.19a4.324,4.324,0,0,0-4.18-4.56c-2.54,0-6.15,3.38-7.63,4.75l0.83-1.68-2.43-2.31a27.33,27.33,0,0,1,.38-5.02,3.828,3.828,0,0,0,.69-0.72c0-.34-0.35-0.38-0.95-0.46l-3.77-.41-0.15,8.16a30.675,30.675,0,0,1-6.84,1.83l1.87,4.1c1.89-.61,2.92-0.99,4.93-1.71l-0.07,3.35a43.638,43.638,0,0,1-7.22,8.73l3.95,2.66c1.33-2.09,1.98-3,3.15-4.63l-0.11,8.77,4.26-.22c-0.23-4.45-.23-8.4-0.27-13.68,2.66-3.27,5.59-6.92,7.75-6.92,1.29,0,1.48,1.56,1.48,2.55,0,1.6-.68,8.66-0.68,10.11,0,0.95,0,6.23,4.41,6.23C2076.3,2881.24,2078.39,2879.6,2080.14,2877.74Zm-2.92,37.13a8.38,8.38,0,0,0-8.44-8.4,30.205,30.205,0,0,0-3.68.23c5.5-5.62,6.15-6.23,8.43-8.13l-1.98-3.08c-3.61,1.41-10.06,1.9-11.51,1.9-1.18,0-3.34-.15-4.25-0.23l0.87,4.26a35.661,35.661,0,0,0,8.89-.95,74.913,74.913,0,0,1-14.06,13.71l3.19,3.35c2.13-2.17,5.48-5.55,7.83-6.8a10.212,10.212,0,0,1,4.33-.95c2.47,0,6.16,1.21,6.16,4.97a6.693,6.693,0,0,1-2.51,5.06c-1.06-1.33-3.53-4.45-7.48-4.45a5.324,5.324,0,0,0-5.59,5.06c0,2.81,2.43,5.2,7.18,5.2C2071.29,2925.62,2077.22,2921.18,2077.22,2914.87Zm-10.26,6.8a11.054,11.054,0,0,1-2.59.34c-1.36,0-3.11-.38-3.11-1.71a1.671,1.671,0,0,1,1.9-1.59C2065.32,2918.71,2066.46,2920.8,2066.96,2921.67Zm-11.78,46.32a27.881,27.881,0,0,1,3.53-9l-2.35-1.48c-0.61.87-1.22,1.82-1.56,2.39a45.146,45.146,0,0,1-.23-4.52c0-6.42,1.86-13.72,2.43-14.02,0.23-.08.61-0.19,0.72-0.23a0.5,0.5,0,0,0,.31-0.42,1.147,1.147,0,0,0-.91-0.68l-4.11-1.6c-1.36,6.23-2.35,10.98-2.35,17.4a44.6,44.6,0,0,0,1.56,12.54Zm23.78-22.61a22.491,22.491,0,0,1-5.32,1.87,32.037,32.037,0,0,1,.35-4.22c0.64-.15,1.36-0.3,3.15-0.76v-3.99a34.905,34.905,0,0,1-13.68,2.24l0.08,3.65a39.389,39.389,0,0,0,6.34-.46c-0.15,1.56-.19,2.74-0.23,4.22a37.853,37.853,0,0,1-7.29.38l0.08,3.84a40.552,40.552,0,0,0,7.21-.34c0.04,1.02.04,1.71,0.31,6.04a16.765,16.765,0,0,0-2.36-.15c-5.2,0-6.8,2.81-6.8,5.01,0,2.93,3,5.55,7.79,5.55,6.04,0,5.81-3.35,5.7-4.9a17.936,17.936,0,0,1,3.88,3.23l2.54-3.54a23.918,23.918,0,0,0-6.72-4.25c-0.23-3.65-.31-5.4-0.38-7.64a25.175,25.175,0,0,0,5.35-1.67v-4.11Zm-8.81,15.92c0.07,2.28,0,3.39-2.36,3.39-2.39,0-3.15-1.3-3.15-2.06,0-.95,1.48-1.74,3.04-1.74A8.109,8.109,0,0,1,2070.15,2961.3Zm9.23,20.11a21.238,21.238,0,0,0-2.62-3.31l-1.98,1.33a22.052,22.052,0,0,1,2.59,3.35Zm-4.56,1.9a19.5,19.5,0,0,0-2.62-3.31l-1.94,1.49a22.6,22.6,0,0,1,2.59,3.3Zm0.95,27.17v-4.68a46.083,46.083,0,0,1-11.36,1.67c-3.95,0-6.95-.91-6.95-3.99,0-2.28,1.9-3.95,4.37-5.54a52.283,52.283,0,0,1,13.83-5.93l-1.41-4.37c-4.29,1.9-7.14,3.31-9.38,4.41a4.905,4.905,0,0,1-2.13-2.43c-1.03-2.32-1.06-6.99-1.06-9.08l-4.79.72c0.34,1.86,1.4,8.28,1.94,9.57a8.475,8.475,0,0,0,2.31,3.16c-3.87,2.28-7.78,4.67-7.78,9.57a7.116,7.116,0,0,0,3.87,6.46c2.39,1.21,5.85,1.37,8.06,1.37A73.118,73.118,0,0,0,2075.77,3010.48Zm-5.51,15.16a31.564,31.564,0,0,1,7.34,8.4l3.95-3.12a21.889,21.889,0,0,0-8.48-8.24Zm-89.74-514.82H1962.4v3.91h4.94c-0.08,7.07-.84,10.75-1.98,13.6-2.47,6.2-5.74,8.13-7.29,9.05l3.83,2.81c1.22-.8,3.46-2.17,5.85-6.69,3.01-5.74,3.92-12.27,3.73-18.77h5.01a139.488,139.488,0,0,1-.91,16.26c-0.45,3.19-.99,4.79-3.68,4.79a12.458,12.458,0,0,1-2.82-.38l1.71,4.83c5.55-.31,7.45-1.52,8.17-4.6C1980.29,2529.85,1980.52,2522.33,1980.52,2510.82Zm-14.13,10.56a1.3,1.3,0,0,0-.91-0.95l-2.74-1.33a21.118,21.118,0,0,1-3.46,4.29l2.89,2.13c1.56-1.82,2.2-2.7,2.85-3.53C1965.93,2521.99,1966.39,2521.99,1966.39,2521.38Zm-3.23,6.95a21.225,21.225,0,0,1-5.32-5.16,36.993,36.993,0,0,0,4.56-7.68l-1.41-1.44h-3.46v-4.71a1.546,1.546,0,0,0,.99-0.88c0-.53-0.83-0.49-1.1-0.49l-3.91-.19v6.27h-4.94v3.76h8.01a28.835,28.835,0,0,1-9.61,9.57l2.62,3.69a35.332,35.332,0,0,0,3.77-3.04v12.39h3.91v-12.09a33.279,33.279,0,0,0,3.08,2.89Zm15.96,27.52a37.873,37.873,0,0,0-3.31-4.83l-3.12,2.09a26.933,26.933,0,0,1,3.04,4.64Zm2.81,21.16-3.23-2.05c-0.08.8-.31,3.46-1.26,3.46-1.06,0-5.47-3.35-7.37-14.48l11.02-1.63-0.49-4.3-10.95,1.6c-0.22-3.12-.26-5.47-0.26-6.27a1.373,1.373,0,0,1,.45-1.41c0.42-.34.46-0.38,0.46-0.64,0-.31-0.15-0.57-1.1-0.57l-4.22-.04c0.08,3.65.27,6.73,0.5,9.54l-6.73.98,0.49,4.34,6.69-.99c0.46,2.96,1.44,9.31,5.55,14.78,0.72,0.99,3.19,3.99,6.34,3.99C1979.88,2583.32,1981.13,2581.04,1981.93,2577.01Zm-21.2-24.35c0-.23-0.23-0.42-0.92-0.65l-4.18-1.29a45.522,45.522,0,0,1-8.24,15.42l3.53,2.25a21.643,21.643,0,0,0,2.25-2.97v17.48h4.17v-22.42a0.8,0.8,0,0,1,.31-0.57,0.733,0.733,0,0,0,.34-0.57,1.193,1.193,0,0,0-.87-0.83c0.98-1.9,1.48-2.93,2.39-4.94a1.08,1.08,0,0,1,.84-0.46A0.485,0.485,0,0,0,1960.73,2552.66Zm23.1,45.37a17.052,17.052,0,0,0-2.97-3.19l-1.97,1.44a15.1,15.1,0,0,1,2.69,3.27Zm-4.14,2.12a23.415,23.415,0,0,0-2.93-3.22l-2.05,1.51a17,17,0,0,1,3,3.35Zm-0.61,10.26c0-4.02-5.17-10.14-6.92-12.23l-3.08,2.13c4.03,4.67,5.48,7.79,5.48,8.74,0,0.91-.8,1.1-2.17,1.29l2.01,3.61C1975.81,2613.76,1979.08,2613.3,1979.08,2610.41Zm-8.63.04c0-3.38-.45-7.9-5.58-7.9a16.5,16.5,0,0,0-2.78.26c0.31-1.71.38-2.39,0.57-3.91a0.824,0.824,0,0,1,.54-0.8c0.38-.23.41-0.26,0.41-0.42a0.886,0.886,0,0,0-.91-0.56l-4.56-.65a44.549,44.549,0,0,1-.38,7.22c-3.11.68-4.4,0.95-7.29,1.4l1.4,4.56a34.772,34.772,0,0,1,5.17-2.05,40.324,40.324,0,0,1-6.88,14.82l3.95,1.79c3.46-5.25,5.29-9.81,7.22-17.6a13.41,13.41,0,0,1,2.06-.19c2.35,0,3.07.92,3.07,3.84,0,1.82-.3,6.61-2.01,8.74a2.933,2.933,0,0,1-2.62,1.06,11.443,11.443,0,0,1-2.59-.3l0.92,4.1a25.359,25.359,0,0,0,2.85.16,5.7,5.7,0,0,0,4.33-1.49C1969.12,2620.82,1970.45,2615.92,1970.45,2610.45Zm10.6,57.8v-3.76h-13.71v-7.22h8.43v-3.95h-8.43v-6.12h12.04v-3.84h-12.04v-4.67a0.8,0.8,0,0,1,.57-0.72,0.664,0.664,0,0,0,.41-0.54c0-.38-0.3-0.53-0.91-0.57l-4.59-.22v6.72h-6.31a32.077,32.077,0,0,0,1.14-3.19,1.319,1.319,0,0,1,.8-0.76,0.562,0.562,0,0,0,.45-0.49c0-.23-0.19-0.38-0.99-0.61l-3.99-1.1a34.211,34.211,0,0,1-3.22,8.51,26.315,26.315,0,0,1-3.58,5.09l4.07,2.16a50.655,50.655,0,0,0,3.49-5.77h8.14v6.12h-8.67v3.95h8.67v7.22h-14.21v3.76h32.44Zm-0.6,32.15c-1.64-1.07-2.82-1.79-4.91-2.97a45.627,45.627,0,0,0,1.3-5.66,0.869,0.869,0,0,1,.41-0.8c0.54-.26.57-0.3,0.57-0.49a1.1,1.1,0,0,0-.91-0.65l-4.25-1.17a33.187,33.187,0,0,1-.99,6.95,24.5,24.5,0,0,0-7.33-1.75c0.53-1.18,3.22-7.29,3.26-7.44a15.123,15.123,0,0,1,1.98-3.23l-2.51-2.51c-2.05,1.33-6.53,2.09-12.39,2.05l1.71,3.84a26.813,26.813,0,0,0,6.92-1.18,87.366,87.366,0,0,1-3.08,8.24,10.258,10.258,0,0,0-6.04,1.83,9.433,9.433,0,0,0-4.48,7.52c0,2.81,1.71,4.9,4.29,4.9,3.34,0,4.98-2.43,8.74-10.48a23.545,23.545,0,0,1,7.6,2.12c-2.28,4.83-4.22,6.77-7.56,8.93l3.76,2.62c3.53-2.62,5.32-4.75,7.52-9.46,0.88,0.57,1.94,1.29,3.95,2.85Zm-21.93-2.89a41.7,41.7,0,0,1-2.51,4.71,1.722,1.722,0,0,1-1.59.91c-0.27,0-.76-0.04-0.76-1.02C1953.66,2700.7,1955.25,2698.54,1958.52,2697.51Zm21.66,43.32a0.567,0.567,0,0,0-.53-0.38l-4.49-.34v8.58h-8.05v-10.67h11.32v-11.14a1.188,1.188,0,0,1,.69-0.94,0.642,0.642,0,0,0,.26-0.42,0.449,0.449,0,0,0-.53-0.34l-4.64-.31v9.04h-7.1v-9.27a0.9,0.9,0,0,1,.61-0.53,0.523,0.523,0,0,0,.38-0.45,0.5,0.5,0,0,0-.5-0.42l-5.01-.65v11.32h-7.07v-7.37a0.7,0.7,0,0,1,.42-0.53,0.626,0.626,0,0,0,.34-0.45,0.457,0.457,0,0,0-.42-0.35l-4.56-.41v13.22h11.29v10.67h-8.02v-6.38c0-.11,0-0.15.46-0.49a0.726,0.726,0,0,0,.34-0.54,0.569,0.569,0,0,0-.61-0.45l-4.44-.42v14.48h4.25v-2.13h20.59v1.71h4.26v-12.46a1.087,1.087,0,0,1,.53-0.76A0.64,0.64,0,0,0,1980.18,2740.83Zm-1.6,45.98-3.72-3.08c-3.72,7.3-8.81,8.63-10.94,8.63a3.7,3.7,0,0,1-3.35-1.6c-0.72-1.29-.72-4.98-0.72-6.72a141.734,141.734,0,0,1,1.07-15.2,2.515,2.515,0,0,0,1.06-1.1c0-.23-0.34-0.5-1.25-0.61l-5.06-.72c0.12,2.54-.19,13.83-0.19,16.14,0,9.12.61,11.06,2.4,12.62a8.447,8.447,0,0,0,5.54,1.94,13.743,13.743,0,0,0,7.56-2.44A28.164,28.164,0,0,0,1978.58,2786.81Zm0,38.38v-4.03a44.332,44.332,0,0,0-5.01-.23c-2.02,0-3.92.12-5.89,0.27v3.99a47.3,47.3,0,0,1,5.7-.42A41.424,41.424,0,0,1,1978.58,2825.19Zm-8.58-7.64v-4.22a29.608,29.608,0,0,1-6.04,2.25c0.26-1.07.57-2.44,0.91-4.14a0.748,0.748,0,0,1,.64-0.65,0.542,0.542,0,0,0,.46-0.53,1.135,1.135,0,0,0-.95-0.61l-4.67-1.1a46.515,46.515,0,0,1-1.3,8.05,27.535,27.535,0,0,1-3.76.23,14.774,14.774,0,0,1-3.07-.23l0.3,3.95a47.77,47.77,0,0,0,5.66-.45c-3,10.29-5.43,14.4-7.71,18.08l4.63,1.41a107.82,107.82,0,0,0,7.83-20.21A45.922,45.922,0,0,0,1970,2817.55Zm9.19,21.73-0.38-4.4a25.33,25.33,0,0,1-6.69.83c-0.87,0-3.76-.03-4.82-1.02a1.31,1.31,0,0,1-.46-1.14,6.829,6.829,0,0,1,.16-1.41l-3.77-.8a8.934,8.934,0,0,0-.45,2.74c0,3.88,2.92,5.77,9.76,5.77A36.061,36.061,0,0,0,1979.19,2839.28Zm1.45,39.34v-26.26H1965.4v14.52c0,8.77-3.8,11.77-7.6,13.86l3.38,2.74c4.22-2.66,7.18-6,8.21-12.84h6.95v7.18c0,1.25-.53,1.52-1.37,1.52h-2.69l1.4,4.06h1.94C1979.65,2883.4,1980.64,2881.62,1980.64,2878.62Zm-4.3-18.96h-6.65v-3.61h6.65v3.61Zm0,7.25h-6.65v-3.57h6.65v3.57Zm-13.37,6.46v-20.29h-13.76v23.29h4.34v-3h9.42Zm-4.11-12.08h-5.31v-4.52h5.31v4.52Zm0,8.44h-5.31v-4.75h5.31v4.75Zm19.99,56.46V2911.6h-18.69v14.74h4.37v-1.44h10.03v1.29h4.29Zm-4.29-5.17h-10.03v-5.54h10.03v5.54Zm7.63-12.8a58.972,58.972,0,0,0-6.46-9.73l-3.53,2.36a16.918,16.918,0,0,1,2.51,3.15c-3.23.5-7.45,0.69-9.39,0.8,1.37-2.47,2.7-4.98,3.99-7.48,0.34-.73.38-0.8,0.91-0.88a0.539,0.539,0,0,0,.57-0.49c0-.42-0.41-0.61-1.17-0.91l-3.84-1.52a81.441,81.441,0,0,1-5.09,11.43h-3.35l1.22,4.3a1.055,1.055,0,0,0,.49.68,0.883,0.883,0,0,0,.65-0.49,1.127,1.127,0,0,1,.99-0.31c0.38,0,2.01-.07,2.32-0.11,4.63-.42,9.27-0.91,13.86-1.52,0.8,1.4.92,1.63,1.64,2.96Zm-23.9-10.56a32.2,32.2,0,0,0-5.54-3.69l-2.59,3.35a30.048,30.048,0,0,1,5.28,3.64Zm-3.3,9.31a27.322,27.322,0,0,0-5.59-3.39l-2.24,3.31a24.4,24.4,0,0,1,5.47,3.46Zm2.62,8.58-3.5-2.54a46.127,46.127,0,0,1-5.69,11.17l3.15,2.31a2.035,2.035,0,0,0,.99.5,0.2,0.2,0,0,0,.23-0.23c0-.08-0.04-0.49-0.04-0.57a28.092,28.092,0,0,1,1.36-2.81C1954.57,2922.43,1956.2,2919.28,1957.61,2915.55Zm23.44,53.28v-3.76h-13.71v-7.22h8.43v-3.95h-8.43v-6.12h12.04v-3.84h-12.04v-4.67a0.8,0.8,0,0,1,.57-0.72,0.664,0.664,0,0,0,.41-0.54c0-.38-0.3-0.53-0.91-0.57l-4.59-.22v6.72h-6.31a32.077,32.077,0,0,0,1.14-3.19,1.319,1.319,0,0,1,.8-0.76,0.562,0.562,0,0,0,.45-0.49c0-.23-0.19-0.38-0.99-0.61l-3.99-1.1a34.211,34.211,0,0,1-3.22,8.51,26.315,26.315,0,0,1-3.58,5.09l4.07,2.16a50.655,50.655,0,0,0,3.49-5.77h8.14v6.12h-8.67v3.95h8.67v7.22h-14.21v3.76h32.44Zm-4.14,37.5a31.671,31.671,0,0,0-9.61-4.29c-0.12-2.24-.12-2.62-0.19-4.52a79.758,79.758,0,0,0,8.13-.95v-4.14c-3.5.64-4.9,0.87-8.21,1.29v-4.48c1.9-.04,5.44-0.12,9.65-0.12l0.16-4.03c-3.58.27-4.87,0.35-9.73,0.57,0.04-1.97.07-2.69,0.07-2.73a1.25,1.25,0,0,1,.5-0.68,0.833,0.833,0,0,0,.49-0.54c0-.26-0.23-0.38-0.95-0.45l-4.63-.46,0.11,5.05c-3.38.08-5.43,0.16-9.76,0.16l0.07,4.1c3.27-.38,5.44-0.53,9.81-0.72l0.07,4.75c-0.87.07-1.37,0.07-2.62,0.07-0.65,0-1.44,0-1.44-.53a2.34,2.34,0,0,1,1.25-1.4l-2.17-1.87c-1.48,1.07-4.06,2.85-4.06,4.72,0,1.48,1.75,2.73,5.24,2.73,1.1,0,3.19-.08,3.88-0.11l0.07,3.64-1.06-.03c-8.55-.31-8.93,4.1-8.93,5.2,0,3.08,3.27,4.94,8.51,4.94,4.87,0,5.78-1.52,5.93-5.39a28.514,28.514,0,0,1,6.95,3.76Zm-13.83-1.33c0.04,2.13-.11,2.82-2.58,2.82-0.46,0-2.89,0-2.89-1.3,0-.98,1.22-1.63,3.69-1.63A10.5,10.5,0,0,1,1963.08,3005Zm17.06,44.5-1.18-4.25c-1.55,2.2-3,2.88-4.06,2.88-1.03,0-1.41-.41-1.41-2.5a53.387,53.387,0,0,1,.38-5.36c0.5-5.09.53-5.51,0.53-6.19a4.324,4.324,0,0,0-4.18-4.56c-2.54,0-6.15,3.38-7.63,4.75l0.83-1.68-2.43-2.31a27.33,27.33,0,0,1,.38-5.02,3.828,3.828,0,0,0,.69-0.72c0-.34-0.35-0.38-0.95-0.46l-3.77-.41-0.15,8.16a30.675,30.675,0,0,1-6.84,1.83l1.87,4.1c1.89-.61,2.92-0.99,4.93-1.71l-0.07,3.35a43.638,43.638,0,0,1-7.22,8.73l3.95,2.66c1.33-2.09,1.98-3,3.15-4.63l-0.11,8.77,4.26-.22c-0.23-4.45-.23-8.4-0.27-13.68,2.66-3.27,5.59-6.92,7.75-6.92,1.29,0,1.48,1.56,1.48,2.55,0,1.6-.68,8.66-0.68,10.11,0,0.95,0,6.23,4.41,6.23C1976.3,3053,1978.39,3051.36,1980.14,3049.5Zm0.23,32.65c0-8.48-6.23-13.83-14.13-13.83a16.381,16.381,0,0,0-16.76,16.1c0,6.81,6.23,10.23,7.6,10.23,1.97,0,3.72-3.2,4.86-5.55,1.26-2.55,3.5-7.87,4.71-16.91a9.7,9.7,0,0,1,6.46,2.55,8.951,8.951,0,0,1,2.74,6.65,11.892,11.892,0,0,1-2.74,7.56,12.788,12.788,0,0,1-6.84,4.06l2.81,3.91a18.24,18.24,0,0,0,8.86-6.68A14.24,14.24,0,0,0,1980.37,3082.15Zm-18.24-9.28c-0.76,5.93-4.03,15.85-6,15.85-0.69,0-2.43-1.6-2.43-4.68a12.43,12.43,0,0,1,3.8-8.43A11.168,11.168,0,0,1,1962.13,3072.87Zm-80.85-546.59v-2.66H1866.5v-1.33h12.35v-11.4h-7.41a9.009,9.009,0,0,1,.65-1.55,3.032,3.032,0,0,0,.91-0.73c0-.34-0.5-0.38-0.88-0.41l-3.99-.46c-0.15.53-1.32,2.7-1.51,3.15h-3.92v17.41l-2.01-.95c-0.15.83-.31,1.86-0.76,1.86s-0.42-.12-0.34-1.22l1.02-13.56-4.67.3c0.07-1.37.15-3.72,0.15-3.87,0-.95-0.08-1.49.46-1.83a0.894,0.894,0,0,0,.53-0.53c0-.3-0.5-0.34-1.07-0.38l-3.95-.34c0.19,3.65.19,5.01,0.19,7.18l-3.34.19,0.15,3.49,3.04-.15c-0.83,9.5-2.92,13.6-5.74,17.94l4.18,1.17c3.92-6.84,4.79-15.31,5.17-19.26l1.06-.08c-0.26,3.99-.72,10.26-0.87,11.67a11.292,11.292,0,0,0-.11,1.48,1.979,1.979,0,0,0,2.09,2.24h3.04a12.841,12.841,0,0,1-2.32,4.41l3.53,1.82a23.855,23.855,0,0,0,2.36-6.34,0.509,0.509,0,0,0,.53-0.42,0.959,0.959,0,0,0-.72-0.57l-1.45-.57a4.128,4.128,0,0,0,.42-1.29h13.83c0,0.23-.11,4.86-1.29,5.7-0.57.42-.84,0.42-3.34,0.34l1.52,3.76a7.345,7.345,0,0,0,4.37-1.02c2.39-1.79,2.81-10.57,2.84-11.74h-14.7v-1.45h14.78Zm-6.46-11.02h-8.32v-1.59h8.32v1.59Zm0,4.11h-8.32v-1.6h8.32v1.6Zm0.34,15.19a11.387,11.387,0,0,0-.87-3.11l-2.2.45a17.723,17.723,0,0,1,.64,3.46Zm-3.45,1.64a14.975,14.975,0,0,0-.84-4.07l-2.2.27a19.428,19.428,0,0,1,.49,4.56Zm-3.54,1.25a21.816,21.816,0,0,0-.72-4.9l-2.47.04a18.9,18.9,0,0,1,.23,3.57,13.857,13.857,0,0,1-.08,1.82Zm11.4,26.41v-4.33h-6.38v-5.73a1.1,1.1,0,0,1,.42-0.5,0.7,0.7,0,0,0,.34-0.45c0-.46-0.88-0.57-1.18-0.61l-3.91-.53c0.07,2.39.07,4.94,0.07,7.82h-7.18v-5.32a0.76,0.76,0,0,1,.5-0.57,0.456,0.456,0,0,0,.3-0.38c0-.38-0.27-0.41-1.14-0.53l-4.18-.45v7.25h-7.03v4.33h7.03v8.7h4.52v-8.7h7.18c-0.15,8.51-2.31,12.39-9.19,16.15l3.11,2.97c7.37-4.49,9.88-8.29,10.3-19.12h6.42Zm2.39,30.52a20.352,20.352,0,0,0-3.22-3.46l-1.87,1.67a16.548,16.548,0,0,1,3.12,3.42Zm-5.69.15a21.239,21.239,0,0,0-3.16-3.34l-1.86,1.67a21.369,21.369,0,0,1,3.15,3.34Zm2.16,5.97-3.72-3.5a2.526,2.526,0,0,1-1.26.61h-21.5v4.41h20.25c-4.45,13.1-13.07,17.51-17.29,19.49l3.99,3.27a33.83,33.83,0,0,0,11.13-9.01,45.311,45.311,0,0,0,6.92-13.37A4.787,4.787,0,0,1,1878.43,2600.5Zm1.67,51.87-2.31-4.18a52.675,52.675,0,0,1-9.09,7.82,27.506,27.506,0,0,1-9.34,4.3v-19.08c0-.15.04-0.19,0.61-0.64a0.709,0.709,0,0,0,.38-0.53c0-.38-0.76-0.5-1.03-0.54l-4.52-.57v25.12l2.58,2.62C1865.4,2664.11,1874.37,2658.75,1880.1,2652.37Zm-11.78,30.51c0-.34-0.34-0.53-1.25-0.61l-4.75-.49v27.81h5.13v-25.65a0.913,0.913,0,0,1,.42-0.45A0.777,0.777,0,0,0,1868.32,2682.88Zm12.54,64.75a30.429,30.429,0,0,0-6.53-3.57,90.932,90.932,0,0,1-.53-10.18,36.524,36.524,0,0,0,4.75-1.07v-4.1a16.837,16.837,0,0,1-4.72,1.56,42.494,42.494,0,0,1,.54-4.71,1.339,1.339,0,0,0,.72-0.61c0-.23-0.12-0.42-0.91-0.53l-4.26-.69c-0.08,3.76-.08,4.18-0.15,7.03a31.012,31.012,0,0,1-3.53.23,20.065,20.065,0,0,1-3.42-.23l0.03,3.91a41.142,41.142,0,0,0,6.88-.3c0.08,2.58.19,4.18,0.49,8.7a22.389,22.389,0,0,0-2.31-.15c-3.69,0-6.69,1.48-6.69,4.9,0,5.47,6.38,5.47,7.48,5.47,5.17,0,5.93-1.97,6.01-4.9a20.638,20.638,0,0,1,3.99,3Zm-21.69-3.34-2.4-1.64-1.55,2.28a37.441,37.441,0,0,1-.19-3.99,97.207,97.207,0,0,1,1.4-11.78,11.007,11.007,0,0,1,.84-2.58,7.328,7.328,0,0,0,.72-0.3,0.344,0.344,0,0,0,.15-0.27,1.467,1.467,0,0,0-.91-0.76l-3.69-1.44a72.092,72.092,0,0,0-2.31,17.78,40.876,40.876,0,0,0,1.44,11.78l3.5-.57C1856.58,2749.76,1858.33,2746.07,1859.17,2744.29Zm11.28,2.39c0.08,1.98.15,2.85-2.35,2.85-2.24,0-3.35-.8-3.35-1.67s1.22-1.52,3-1.52A13.406,13.406,0,0,1,1870.45,2746.68Zm11.55,45.45-3.99-1.56c-0.34,1.48-.72,2.93-2.35,2.93h-6.73c-1.18,0-1.78-.38-1.78-2.28v-9.96l2.47-.99v9.69h4.06v-11.28l3.23-1.29v7.21a1.2,1.2,0,0,1-1.14,1.37,11.761,11.761,0,0,1-2.01-.19l2.28,3.84c2.13-.04,5.01-0.27,5.01-3.65v-12.76l-1.97-1.03-5.4,2.17v-7.45a1.388,1.388,0,0,1,.57-0.61,0.615,0.615,0,0,0,.23-0.42,0.432,0.432,0,0,0-.46-0.34l-4.4-.34v10.75l-2.47.99v-7.52a0.879,0.879,0,0,1,.41-0.57,0.579,0.579,0,0,0,.27-0.46,0.434,0.434,0,0,0-.46-0.38l-4.29-.42v10.98l-4.79,1.87,1.22,3.87,3.57-1.44v10.03c0,3.19,2.51,4.67,5.62,4.67h8.17C1880.29,2797.56,1881.32,2794.29,1882,2792.13Zm-21.12-4.87c-1.22.38-1.98,0.61-4.14,1.22v-10.3h3.64V2774h-3.64v-7.1a0.707,0.707,0,0,1,.45-0.49,0.78,0.78,0,0,0,.38-0.46,0.394,0.394,0,0,0-.45-0.34l-4.49-.23V2774h-4.1v4.18h4.1v11.4c-1.25.31-2.92,0.69-4.44,0.95l0.76,4.75a0.3,0.3,0,0,0,.3.27,0.964,0.964,0,0,0,.57-0.46,2.961,2.961,0,0,1,1.48-.68c0.38-.12,2.21-0.61,2.59-0.72,2.31-.73,4.63-1.49,6.91-2.28Zm16.37,25.92v-4.21h-24.73v4.21h24.73Zm4.49,20.37-4.45-1.83c-0.07.88-.3,4.03-2.47,4.03h-2.96a1.292,1.292,0,0,1-1.37-1.52v-11.21h10.41v-4.29h-31.88v4.29h8.97a14.024,14.024,0,0,1-2.74,9.84,11.035,11.035,0,0,1-7.97,3.96l3.04,3.95c5.58-1.3,11.2-5.82,12.19-14.9,0.53-.11,1.41-0.3,1.41-0.98,0-.5-0.53-0.73-1.45-0.99l-3.11-.88h6.76v13.8a3.1,3.1,0,0,0,3.27,3.07h6.53C1879.5,2839.89,1880.56,2838.34,1881.74,2833.55Zm-0.5,46.17a25.525,25.525,0,0,1-5.58-6.01h4.25v-4.97h1.26v-2.97h-1.26v-4.67h-5.35v-1.48h6.64v-3.23h-4.74c0.45-.84,1.1-2.32,1.48-3.15a3.182,3.182,0,0,1,.53-0.31,0.434,0.434,0,0,0,.23-0.42,0.936,0.936,0,0,0-.65-0.49l-3.57-1.06a31.526,31.526,0,0,1-2.05,5.43h-5.25l2.21-1.14a35.684,35.684,0,0,0-3.19-4.33l-3.35,1.78a20.439,20.439,0,0,1,2.63,3.69h-3.61a14.035,14.035,0,0,1-3.8-3.23,2.9,2.9,0,0,0,.38-0.65,1.013,1.013,0,0,0-.92-0.72l-3.45-.87a19.1,19.1,0,0,1-6.54,7.37l3.12,2.47a2.23,2.23,0,0,0,.3-0.31v1.98h2.58v1.86h-4.17v3.57h4.17v9.01a31.755,31.755,0,0,1-5.2.49l0.68,4.07c0.12,0.57.27,0.76,0.54,0.76,0.19,0,.26-0.08.64-0.61,0.19-.27.31-0.3,1.22-0.49,0.87-.19,4.75-0.95,5.51-1.14,2.01-.46,2.92-0.73,3.68-0.95a8.9,8.9,0,0,1-2.58,1.55l3.11,2.97a25.022,25.022,0,0,0,4.68-5.36v5.62h3.42v-10.07h1.82v10.07h3.5v-6.19a18.7,18.7,0,0,0,4.14,4.75Zm-15.42-8.97h-3.16v2.96h2.36a17.72,17.72,0,0,1-3.84,4.83l0.31-3.38a22.374,22.374,0,0,1-4.15,1.02v-1.93l2.51,1.02a21.672,21.672,0,0,0,1.67-4.41,0.859,0.859,0,0,0,.76-0.41,0.685,0.685,0,0,0-.64-0.57l-3.16-1.03a12.881,12.881,0,0,1-1.14,3.69v-4.68h3.8v-3.57h-3.57v-1.86h2.93v-3.57h-0.95l1.75-1.67v2.43h4.52v1.48h-3.54v2.96h3.54v1.71h-3.76v2.97h3.76v2.01Zm5.24,0h-1.82v-2.01h1.82v2.01Zm0-4.98h-1.82v-1.71h1.82v1.71Zm0-4.67h-1.82v-1.48h1.82v1.48Zm5.4,4.67h-1.9v-1.71h1.9v1.71Zm0,4.98h-1.9v-2.01h1.9v2.01Zm-17.94-11.89h-5.81a27.7,27.7,0,0,0,2.77-3.27A24.115,24.115,0,0,0,1858.52,2858.86Zm-5.16,16.18a40.43,40.43,0,0,0-1.18-6l-3.23.76a28.833,28.833,0,0,1,.91,5.97Zm25.03,52.82v-9.76h-21.43c0.08-.53.19-1.33,0.27-1.79h19.72v-10.9h-23.48c0,1.1.04,3.23,0.04,4.6,0,7.59-.8,10.98-4.79,15.35l3.65,2.09a18.69,18.69,0,0,0,4.44-8.74v9.15h4.26v-0.87h13.18v0.87h4.14Zm-5.51-18.2h-15.46c0.04-.6.04-1.14,0.04-1.44h15.42v1.44Zm0,4.11h-15.46c0-.76.04-0.84,0.04-1.45h15.42v1.45Zm1.37,10.03h-13.18v-2.7h13.18v2.7Zm7.9-22.65a34.63,34.63,0,0,1-13.6-6.04,0.487,0.487,0,0,0,.23-0.42,0.8,0.8,0,0,0-.8-0.49l-4.75-.3c-4.9,5.13-10.98,6.65-15.27,7.44l2.74,3.61a35.781,35.781,0,0,0,7.59-2.66v1.86h14.18v-2.05a37,37,0,0,0,6.99,2.62Zm-11.7-.07h-9.84a27.266,27.266,0,0,0,4.68-3.42A30.588,30.588,0,0,0,1870.45,2901.08Zm7.72,51.98-1.3-4.33c-1.78.8-2.28,1.02-6.72,3.11a5.1,5.1,0,0,0-5.17-3.83,7.543,7.543,0,0,0-3.27.79c0.65-.98.95-1.52,2.17-3.76a78.4,78.4,0,0,0,9.08-1.44l0.27-4.26a31.987,31.987,0,0,1-7.45,1.94c0.19-.42,1.14-2.54,1.18-2.58,0.03,0,.79-0.34.87-0.38a0.444,0.444,0,0,0,.38-0.42,0.992,0.992,0,0,0-.76-0.38l-4.75-.84a28.721,28.721,0,0,1-1.9,5.06,54.217,54.217,0,0,1-7.26-.15l0.46,3.95c1.6,0,2.77-.04,4.94-0.16a50.223,50.223,0,0,1-7.48,10.45l3.72,2.32c2.09-3.42,4.37-6.88,8.09-6.88a2.633,2.633,0,0,1,2.89,2.51c-5.7,2.93-9.2,4.71-9.2,9.42a5.183,5.183,0,0,0,1.45,3.73c2.39,2.54,6.8,2.54,8.93,2.54a62.885,62.885,0,0,0,9.04-.57v-4.29a44.03,44.03,0,0,1-9.69,1.22c-2.77,0-5.7-.5-5.7-2.97,0-2.66,3.95-4.63,5.4-5.35-0.04,1.67-.08,3.53-0.19,5.69h4.4c0-1.29-.07-6-0.07-7.48C1873.34,2954.66,1875.16,2954.01,1878.17,2953.06Zm2.09,50.27v-16.91h-13.11v-4.52a0.838,0.838,0,0,1,.53-0.57,0.743,0.743,0,0,0,.42-0.53,0.519,0.519,0,0,0-.57-0.42l-4.75-.41v6.45h-13.03v17.06h4.36v-1.67h8.67v10.79h4.37v-10.79h8.74v1.52h4.37Zm-4.37-5.62h-8.74v-7.14h8.74v7.14Zm-13.11,0h-8.67v-7.14h8.67v7.14Zm8.58,30.02a34.7,34.7,0,0,0-8.96-5.01l-2.21,3.68a42.1,42.1,0,0,1,8.48,5.21Zm10.53,16.19a40.9,40.9,0,0,0-6.8-10.49l-3.8,2.17a45.589,45.589,0,0,1,6.46,10.52Zm-5.28,4.86-4.03-2.05c-0.87,3.53-2.01,4.18-3.34,4.18h-3.88a1.892,1.892,0,0,1-2.05-1.98v-14.21a1.226,1.226,0,0,1,.53-0.95,0.953,0.953,0,0,0,.46-0.68,0.5,0.5,0,0,0-.57-0.46l-4.94-.57v18.77c0,2.85,1.37,4.18,4.41,4.18h8.09C1874.25,3055.01,1875.43,3052.81,1876.61,3048.78Zm-19-12.08a0.553,0.553,0,0,0-.46-0.53l-4.48-1.18a53.7,53.7,0,0,1-4.71,12.04l4.29,1.48a70.53,70.53,0,0,0,4.18-10.37,1.454,1.454,0,0,1,.84-0.91A0.648,0.648,0,0,0,1857.61,3036.7Zm19.76,37.24v-4.41a26.419,26.419,0,0,1-9.01,1.56,33.641,33.641,0,0,1-4.86-.42v4.18c2.01,0.19,3.76.19,4.06,0.19A51.315,51.315,0,0,0,1877.37,3073.94Zm1.82,19.95v-4.72a30.965,30.965,0,0,1-8.66,1.18c-3.84,0-4.22-1.02-4.26-4.63l-4.14.57c0.12,6.42,1.56,8.28,8.47,8.28A52.456,52.456,0,0,0,1879.19,3093.89Zm-19.87-6.77-2.24-1.21c-0.84,1.48-1.07,1.86-1.52,2.66a21.015,21.015,0,0,1-.53-5.21c0-5.74,1.63-12.61,2.2-12.95,0.08-.04.57-0.23,0.65-0.27a0.457,0.457,0,0,0,.19-0.34,1.645,1.645,0,0,0-.99-0.69l-3.88-1.4a75.132,75.132,0,0,0-1.59,8.66,66.166,66.166,0,0,0-.57,7.49,33.145,33.145,0,0,0,1.56,9.99,11.481,11.481,0,0,0,1.4,3l3-1.18A33.707,33.707,0,0,1,1859.32,3087.12Zm10.94,24.4a31.564,31.564,0,0,1,7.34,8.4l3.95-3.12a21.889,21.889,0,0,0-8.48-8.24Zm-88.87-592.84-3.34-1.82a5.553,5.553,0,0,1-.53,2.2,2.057,2.057,0,0,1-2.24,1.22h-3.88c-1.44,0-1.75-.42-1.75-1.48v-2.47a55.283,55.283,0,0,0,7.91-3.5,1.841,1.841,0,0,1,1.02-.38,10.953,10.953,0,0,0,1.14.04,0.255,0.255,0,0,0,.16-0.27,1.228,1.228,0,0,0-.57-0.68l-2.78-2.2a25.935,25.935,0,0,1-6.88,3.57v-3.42a0.834,0.834,0,0,1,.42-0.61c0.34-.23.42-0.27,0.42-0.46,0-.41-0.72-0.49-1.03-0.49l-4.06-.19v11.13c0,2.51.23,3.08,0.42,3.46l-3.92-.68c0.27-.08,1.6-0.35,1.87-0.38v-3.39c-1.9.35-3.54,0.65-7.41,1.26V2515h8.01v-3.35h-8.01v-2.35c0-.23.03-0.23,0.72-0.69a0.465,0.465,0,0,0,.3-0.41c0-.19-0.11-0.42-0.95-0.46l-4.06-.23v12.24c-1.64.22-2.36,0.34-3.88,0.53l0.91,3.15c0.27,0.88.42,1.03,0.65,1.03a0.97,0.97,0,0,0,.57-0.61c0.11-.11.15-0.15,1.41-0.34,4.29-.72,6.95-1.26,9.34-1.75a19.949,19.949,0,0,1-1.21,3.76h-7.45v14.71h4.33v-0.92h15.62v0.92h4.37v-14.71h-12.47c0.42-.95.76-1.82,0.88-2.13a0.8,0.8,0,0,1,.38-0.34,0.553,0.553,0,0,0,.23-0.3c0.45,0.49.91,0.87,3.64,0.87h6.99C1779.84,2523.62,1780.75,2522.33,1781.39,2518.68Zm-8.73,12.16h-15.62v-2.2h15.62v2.2Zm0,5.13h-15.62v-2.2h15.62v2.2Zm3.76,34.1a38.269,38.269,0,0,1-7.34-10.11,34.9,34.9,0,0,0,5.93-2.77l-1.9-3.61a22.238,22.238,0,0,1-5.58,3.04,26.794,26.794,0,0,1-1.6-4.52c0-.23.5-0.99,0.5-1.18,0-.5-1.07-0.27-1.33-0.23l-3.84.57a52.446,52.446,0,0,0,2.47,6.65,46.7,46.7,0,0,1-7.94,1.59,18.24,18.24,0,0,1-3,0l1.93,3.99a43.224,43.224,0,0,0,10.64-2.24,42,42,0,0,0,3.57,5.89,25.718,25.718,0,0,0-4.63-.64c-4.18,0-8.97,2.31-8.97,7.82a6.985,6.985,0,0,0,1.48,4.45c2.66,3.42,7.83,3.61,10.03,3.61a31.755,31.755,0,0,0,6.01-.42l-0.31-4.29a29.449,29.449,0,0,1-5.85.64c-4.44,0-6.99-1.18-6.99-4.1,0-2.59,2.55-4.11,5.59-4.11a14.609,14.609,0,0,1,8.7,3.2Zm0.49,49.8a31.671,31.671,0,0,0-9.61-4.29c-0.12-2.24-.12-2.62-0.19-4.52a79.758,79.758,0,0,0,8.13-.95v-4.14c-3.5.64-4.9,0.87-8.21,1.29v-4.48c1.9-.04,5.44-0.12,9.65-0.12l0.16-4.03c-3.58.27-4.87,0.35-9.73,0.57,0.04-1.97.07-2.69,0.07-2.73a1.25,1.25,0,0,1,.5-0.68,0.833,0.833,0,0,0,.49-0.54c0-.26-0.23-0.38-0.95-0.45l-4.63-.46,0.11,5.05c-3.38.08-5.43,0.16-9.76,0.16l0.07,4.1c3.27-.38,5.44-0.53,9.81-0.72l0.07,4.75c-0.87.07-1.37,0.07-2.62,0.07-0.65,0-1.44,0-1.44-.53a2.34,2.34,0,0,1,1.25-1.4l-2.17-1.87c-1.48,1.07-4.06,2.85-4.06,4.72,0,1.48,1.75,2.73,5.24,2.73,1.1,0,3.19-.08,3.88-0.11l0.07,3.64-1.06-.03c-8.55-.31-8.93,4.1-8.93,5.2,0,3.08,3.27,4.94,8.51,4.94,4.87,0,5.78-1.52,5.93-5.39a28.514,28.514,0,0,1,6.95,3.76Zm-13.83-1.33c0.04,2.13-.11,2.82-2.58,2.82-0.46,0-2.89,0-2.89-1.3,0-.98,1.22-1.63,3.69-1.63A10.5,10.5,0,0,1,1763.08,2618.54Zm14.29,26v-4.41a26.419,26.419,0,0,1-9.01,1.56,33.641,33.641,0,0,1-4.86-.42v4.18c2.01,0.19,3.76.19,4.06,0.19A51.315,51.315,0,0,0,1777.37,2644.54Zm1.82,19.95v-4.72a30.965,30.965,0,0,1-8.66,1.18c-3.84,0-4.22-1.02-4.26-4.63l-4.14.57c0.12,6.42,1.56,8.28,8.47,8.28A52.456,52.456,0,0,0,1779.19,2664.49Zm-19.87-6.77-2.24-1.21c-0.84,1.48-1.07,1.86-1.52,2.66a21.015,21.015,0,0,1-.53-5.21c0-5.74,1.63-12.61,2.2-12.95,0.08-.04.57-0.23,0.65-0.27a0.457,0.457,0,0,0,.19-0.34,1.645,1.645,0,0,0-.99-0.69l-3.88-1.4a75.132,75.132,0,0,0-1.59,8.66,66.166,66.166,0,0,0-.57,7.49,33.145,33.145,0,0,0,1.56,9.99,11.481,11.481,0,0,0,1.4,3l3-1.18A33.707,33.707,0,0,1,1759.32,2657.72Zm23.14,24.21a17.61,17.61,0,0,0-3.23-3.11l-1.63,1.71a16.274,16.274,0,0,1,3.11,3.22Zm-2.13,4.33a16.394,16.394,0,0,0-3.15-3.38l-1.64,1.71a15.6,15.6,0,0,1,3.16,3.38Zm-5.85-.42-1.71-3.07a61.591,61.591,0,0,1-8.66.6,66.786,66.786,0,0,1-9.58-.68l1.14,4.18c1.79,0.11,2.89.15,5.17,0.15,2.89,0,4.22-.07,5.85-0.19-1.44,1.33-2.96,2.7-3.84,3.46l2.63,2.74C1768.59,2690.37,1771.52,2687.9,1774.48,2685.84Zm1.79,22.57-0.27-4.56a52.475,52.475,0,0,1-11.74,1.22c-6.46,0-6.73-1.06-6.73-2.13,0-1.37,1.52-2.7,2.13-3.19l-3.3-2.7c-1.14,1.03-3.69,3.31-3.69,6.73,0,3.84,3.65,5.43,12.24,5.43A91.234,91.234,0,0,0,1776.27,2708.41Zm4.67,28.66v-6.84h-6.65a17.649,17.649,0,0,0,1.29-2.01,1.228,1.228,0,0,0,.88-0.69,0.854,0.854,0,0,0-.61-0.61l-2.4-1.06c1.03-.15,2.17-0.38,3.16-0.57,0.26,0.04,1.25.42,1.48,0.42a0.271,0.271,0,0,0,.3-0.27,2.115,2.115,0,0,0-.57-1.14l-2.35-2.66c-5.89,1.83-13.19,2.28-17.75,2.28a56.48,56.48,0,0,1-6.99-.38l1.64,3.61c1.59-.04,2.43-0.04,3.76-0.07l-2.17.76a17.625,17.625,0,0,1,2.02,2.39h-7.07v6.69h3.91v-3.31h12.09l-1.64,1.1a11.7,11.7,0,0,1,2.02,3l2.92-1.55a9.591,9.591,0,0,0-1.33-2.55h10.15v3.46h3.91Zm-8.97-10.98a20.193,20.193,0,0,1-2.05,4.14h-3.8l1.94-.76a19.383,19.383,0,0,0-2.28-2.66C1768.89,2726.51,1769.88,2726.39,1771.97,2726.09Zm-8.05,4.14h-5.89l2.01-.76a13.274,13.274,0,0,0-1.94-2.32c0.88-.04,4.64-0.23,5.4-0.26l-1.71.79A16.507,16.507,0,0,1,1763.92,2730.23Zm16.71,20.59c-1.1.08-2.35,0.15-3.79,0.15a27.825,27.825,0,0,1-7.95-.98,46.584,46.584,0,0,0,6.62-5.55l-1.22-1.86h-11.25l-1.06-1.29h6.34c3.31,0,3.69-2.02,4.07-4.07l-3.04-1.52c-0.19,1.44-.49,2.51-2.66,2.51h-3.46a0.95,0.95,0,0,1-1.02-1.03v-1.21c0.19-.16.3-0.23,0.45-0.38a0.686,0.686,0,0,0,.35-0.46c0-.23-0.19-0.34-0.95-0.38l-3.65-.27v5.29a1.3,1.3,0,0,0,.38,1.17c-1.56,2.36-5.06,4.79-8.93,6.58l2.81,3.07a31.114,31.114,0,0,0,5.81-3.15,19.858,19.858,0,0,0,2.55,2.36,27.765,27.765,0,0,1-9.92,1.9,21,21,0,0,1-2.73-.16l2.28,3.77a36.928,36.928,0,0,0,14.21-3.08c4.97,2.2,9.12,2.54,14.02,2.77Zm-22.75-14.32-2.93-1.75a13.8,13.8,0,0,1-3.91,5.32l2.66,2.13a15.521,15.521,0,0,0,3.72-4.64c0.53,0,.87-0.11.87-0.42A0.781,0.781,0,0,0,1757.88,2736.5Zm10.03,8.96a18.983,18.983,0,0,1-3.23,2.55,26.739,26.739,0,0,1-3.35-2.55h6.58Zm10.79-5.39a20.973,20.973,0,0,0-3.99-5.78l-2.51,2.02a21.558,21.558,0,0,1,3.61,5.55Zm3.3,55.4a18.206,18.206,0,0,1-5.7-4.41h3.88v-18.57h-6.19c0.45-1.14.76-1.94,1.17-3.08h6.12v-3.46H1765.4v3.46h5.51c-0.31,1.33-.5,1.94-0.84,3.08h-4.18v18.57h3.42a10.378,10.378,0,0,1-4.02,3.88v-1.41h-3.31v-1.63h2.36v-2.05h-2.36v-1.41h2.36v-2.05h-2.36v-1.33h3.19v-2.43h-2.58a6.988,6.988,0,0,1,.76-1.44c0.68-.35.76-0.38,0.76-0.61a0.742,0.742,0,0,0-.61-0.57l-2.28-1.03h3.23v-8.32h-14.74c0.23,3.99.34,6.16,0.34,9.31,0,8.51-.87,12.35-2.89,16.22l3.76,1.18a16.353,16.353,0,0,0,1.79-4.79,36.108,36.108,0,0,0,.8-6.23l0.6,0.61a3.507,3.507,0,0,0,.35-0.34v11.25h3.07v-1.52h7.45l2.32,1.97a16.656,16.656,0,0,0,4.63-4.33c0.65,0.08,1.22.11,1.22-.34a1.085,1.085,0,0,0-.57-0.8l-2.66-1.79h5.32l-2.2,1.83a19.988,19.988,0,0,0,5.77,5.09Zm-5.47-12.76h-6.95v-2.02h6.95v2.02Zm0-5.1h-6.95v-1.9h6.95v1.9Zm0,10.19h-6.95v-2.13h6.95v2.13Zm-15.8-8.82a11.615,11.615,0,0,1-1.49,3.65h-1.55a12.123,12.123,0,0,1,.79-1.18c0.08-.07.46-0.26,0.54-0.34a0.41,0.41,0,0,0,.15-0.27,0.9,0.9,0,0,0-.57-0.53l-2.7-1.21a12.7,12.7,0,0,1-2.24,3.3v-3.42h7.07Zm-1.33,7.41h-1.87v-1.33h1.87v1.33Zm0,3.46h-1.87v-1.41h1.87v1.41Zm1.1-14.06h-6.92c0-.38-0.07-1.63-0.07-2.13h6.99v2.13Zm-1.1,17.74h-1.87v-1.63h1.87v1.63Zm5.01-24.08v-3.61h-15.88v3.61h15.88Zm13.76,54.79-1.3-4.33c-1.78.8-2.28,1.02-6.72,3.11a5.1,5.1,0,0,0-5.17-3.83,7.543,7.543,0,0,0-3.27.79c0.65-.98.95-1.52,2.17-3.76a78.4,78.4,0,0,0,9.08-1.44l0.27-4.26a31.987,31.987,0,0,1-7.45,1.94c0.19-.42,1.14-2.54,1.18-2.58,0.03,0,.79-0.34.87-0.38a0.444,0.444,0,0,0,.38-0.42,0.992,0.992,0,0,0-.76-0.38l-4.75-.84a28.721,28.721,0,0,1-1.9,5.06,54.217,54.217,0,0,1-7.26-.15l0.46,3.95c1.6,0,2.77-.04,4.94-0.16a50.223,50.223,0,0,1-7.48,10.45l3.72,2.32c2.09-3.42,4.37-6.88,8.09-6.88a2.633,2.633,0,0,1,2.89,2.51c-5.7,2.93-9.2,4.71-9.2,9.42a5.183,5.183,0,0,0,1.45,3.73c2.39,2.54,6.8,2.54,8.93,2.54a62.885,62.885,0,0,0,9.04-.57v-4.29a44.03,44.03,0,0,1-9.69,1.22c-2.77,0-5.7-.5-5.7-2.97,0-2.66,3.95-4.63,5.4-5.35-0.04,1.67-.08,3.53-0.19,5.69h4.4c0-1.29-.07-6-0.07-7.48C1773.34,2825.84,1775.16,2825.19,1778.17,2824.24Zm3.49,56.28a18.534,18.534,0,0,1-6.57-3.46h4.48v-19.15h-7.41a13.571,13.571,0,0,0,1.29-2.47h7.94v-4.03h-19.07v4.03h6a18.92,18.92,0,0,1-.95,2.47h-4.78v19.15h3.38a19.147,19.147,0,0,1-7.41,3.84l3.15,3.38a36.9,36.9,0,0,0,7.15-4.03,3.118,3.118,0,0,0,.95.19c0.41,0,.57-0.15.57-0.42a1.382,1.382,0,0,0-.42-0.8l-1.98-2.16h5.21l-1.86,1.9a22.063,22.063,0,0,0,7.03,5.01Zm-5.96-12.24h-9.08v-1.86h9.08v1.86Zm0-4.94h-9.08v-1.82h9.08v1.82Zm0,9.99h-9.08v-2.01h9.08v2.01Zm-14.56-17.7v-4.1h-12.57v4.1h4.33v22.34c0,1.18-.49,1.37-1.63,1.37a16.454,16.454,0,0,1-2.59-.19l1.98,4.86c5.01,0.04,6.68-.84,6.68-3.27v-25.11h3.8Zm21.05,64.48-3.23-1.82c-0.07.91-.3,3.3-0.98,3.3-0.84,0-1.6-1.55-2.06-2.58a47.023,47.023,0,0,0,3.65-10.07,0.653,0.653,0,0,1,.69-0.68c0.41-.08.49-0.15,0.49-0.31a0.979,0.979,0,0,0-.8-0.64l-4.06-1.33a58.688,58.688,0,0,1-2.06,7.9,45.177,45.177,0,0,1-1.67-9.8h9.12v-3.31h-9.19c0-.95.07-5.01,0.34-5.35a4.717,4.717,0,0,1,.76-0.54,0.278,0.278,0,0,0,.07-0.22c0-.31-0.19-0.38-0.91-0.46l-4.1-.38c-0.12,2.58-.12,4.41-0.04,6.95h-7.29v-1.33h6.38v-3.19h-6.38v-0.8c0-.11.07-0.15,0.38-0.34a0.6,0.6,0,0,0,.34-0.38c0-.38-0.5-0.42-0.95-0.45l-4.11-.19v2.16h-6.64v3.19h6.64v1.33h-7.97v3.31h19.79a53.931,53.931,0,0,0,2.96,14.89,20.838,20.838,0,0,1-4.9,4.83,13.106,13.106,0,0,1-4.14-2.81h7.3v-2.66h-6.08v-1.26h4.44v-2.35h-4.44v-1.22h3.34v-8.4h-16.15v8.4h3.73v1.22h-4.33v2.35h4.33v1.26h-5.85v2.66H1754a14.038,14.038,0,0,1-5.62,3.64l2.81,3.08a29.275,29.275,0,0,0,5.66-3.91,4.013,4.013,0,0,0,.68.11c0.38,0,.46-0.11.46-0.3a1,1,0,0,0-.38-0.72l-2.2-1.9h5.96l-2.09,2.39a16.922,16.922,0,0,0,5.21,3.57l1.78-2.13,2.66,2.51a28.09,28.09,0,0,0,4.56-4.56c1.52,2.09,3.46,4.22,5.28,4.22a2.6,2.6,0,0,0,2.47-1.82A17.7,17.7,0,0,0,1782.19,2920.11Zm-18.8-8.77h-2.78v-1.22h2.78v1.22Zm0-2.97h-2.78v-1.21h2.78v1.21Zm-6.46,0h-2.7v-1.21h2.7v1.21Zm0,2.97h-2.7v-1.22h2.7v1.22Zm3.49,3.38h-2.81v-1.22h2.81v1.22Zm0,3.61h-2.81v-1.26h2.81v1.26Zm19.72-19.61a13.9,13.9,0,0,0-3.15-4.44l-3.27,1.93a28.383,28.383,0,0,1,2.93,4.41Zm-1.56,59.85-3.72-3.08c-3.72,7.3-8.81,8.63-10.94,8.63a3.7,3.7,0,0,1-3.35-1.6c-0.72-1.29-.72-4.98-0.72-6.72a141.734,141.734,0,0,1,1.07-15.2,2.515,2.515,0,0,0,1.06-1.1c0-.23-0.34-0.5-1.25-0.61l-5.06-.72c0.12,2.54-.19,13.83-0.19,16.14,0,9.12.61,11.06,2.4,12.62a8.447,8.447,0,0,0,5.54,1.94,13.743,13.743,0,0,0,7.56-2.44A28.164,28.164,0,0,0,1778.58,2958.57Zm-0.11,27.32v-4.56c-7.41,2.17-18.77,3.46-27.7,3.54l0.76,4.48a143.982,143.982,0,0,1,14.48-1.63c-1.79,1.67-7.37,6.91-7.37,13.41,0,8.47,9.49,10.45,12.57,11.09l1.33-4.78a11.3,11.3,0,0,1-6.61-1.83,6.525,6.525,0,0,1-2.81-5.32c0-3.8,3.15-8.01,6.5-10.71A14.8,14.8,0,0,1,1778.47,2985.89Zm-26.71,63.8a14.532,14.532,0,0,1,1.14-1.1c3.46,3.65,4.41,4.67,6.04,6.42l4.03-1.59c0.04-4.64.04-5.32,0.07-11.36a16.931,16.931,0,0,1,5.78-1.33,4.98,4.98,0,0,1,5.28,5.05c0,2.66-1.56,4.03-2.93,4.03-1.17,0-1.48-.99-1.93-2.55l-3.54,1.41c0.54,2.77,1.07,5.39,5.25,5.39,4.06,0,7.1-3.68,7.1-8.36,0-4.75-3.27-8.66-9.16-8.66a21.324,21.324,0,0,0-5.85.87l0.04-3.76a32.959,32.959,0,0,0,5.93-1.63v-4.33a23.981,23.981,0,0,1-5.85,1.97c0.04-.72.15-4.44,0.3-4.67a3.654,3.654,0,0,0,.65-0.72c0-.19,0-0.46-1.07-0.61l-4.21-.57c0.03,2.47.03,2.81,0.07,7.11-1.1.07-1.67,0.11-2.62,0.11a31.308,31.308,0,0,1-3.72-.19l0.57,4.29a36.516,36.516,0,0,0,5.77-.19l0.04,4.9a108.616,108.616,0,0,0-9.5,5.82Zm7.18,0.31a33.081,33.081,0,0,1-3.46-3.58,40.222,40.222,0,0,1,3.46-2.31V3050Zm22-16.08a27.992,27.992,0,0,0-7.49-4.29l-2.47,3.34a22.056,22.056,0,0,1,7.49,4.34Zm-5.4,45.03c0-2.5-.22-5.32-0.45-7.98-0.04-.38-0.23-1.97-0.23-2.31s0.68-.57.68-0.91c0-.5-0.68-0.5-0.79-0.5h-4.6a100.591,100.591,0,0,1,.95,11.82,23.06,23.06,0,0,1-2.32,10.18,16.8,16.8,0,0,1-5.39,6.42l4.52,2.39a25.607,25.607,0,0,0,5.32-7.78A28.012,28.012,0,0,0,1775.54,3078.95Zm-12.19-1.17-2.66-1.75c-0.95,2.13-1.71,4.1-2.21,5.39a8.515,8.515,0,0,1-.26-2.35c0-2.28.61-9.54,1.4-10.18a1.145,1.145,0,0,0,.54-0.57c0-.38-0.57-0.46-0.8-0.46l-4.14-.23a70.8,70.8,0,0,0-1.07,11.25,30.067,30.067,0,0,0,1.71,10.33h3.23A86.763,86.763,0,0,1,1763.35,3077.78Zm13.56,57.37a31.671,31.671,0,0,0-9.61-4.29c-0.12-2.24-.12-2.62-0.19-4.52a79.758,79.758,0,0,0,8.13-.95v-4.14c-3.5.64-4.9,0.87-8.21,1.29v-4.48c1.9-.04,5.44-0.12,9.65-0.12l0.16-4.03c-3.58.27-4.87,0.35-9.73,0.57,0.04-1.97.07-2.69,0.07-2.73a1.25,1.25,0,0,1,.5-0.68,0.833,0.833,0,0,0,.49-0.54c0-.26-0.23-0.38-0.95-0.45l-4.63-.46,0.11,5.05c-3.38.08-5.43,0.16-9.76,0.16l0.07,4.1c3.27-.38,5.44-0.53,9.81-0.72l0.07,4.75c-0.87.07-1.37,0.07-2.62,0.07-0.65,0-1.44,0-1.44-.53a2.34,2.34,0,0,1,1.25-1.4l-2.17-1.87c-1.48,1.07-4.06,2.85-4.06,4.72,0,1.48,1.75,2.73,5.24,2.73,1.1,0,3.19-.08,3.88-0.11l0.07,3.64-1.06-.03c-8.55-.31-8.93,4.1-8.93,5.2,0,3.08,3.27,4.94,8.51,4.94,4.87,0,5.78-1.52,5.93-5.39a28.514,28.514,0,0,1,6.95,3.76Zm-13.83-1.33c0.04,2.13-.11,2.82-2.58,2.82-0.46,0-2.89,0-2.89-1.3,0-.98,1.22-1.63,3.69-1.63A10.5,10.5,0,0,1,1763.08,3133.82Zm16.11,26.72v-4.1c-3.87.3-5.05,0.41-10.33,0.72v-3.91a0.533,0.533,0,0,1,.3-0.46,0.663,0.663,0,0,0,.34-0.57c0-.38-0.23-0.49-1.1-0.53l-4.22-.27c0.23,2.78.23,4.79,0.27,5.97-7.98.38-11.25,0.38-13.83,0.38v4.4c4.82-.6,10.56-0.95,13.94-1.14l0.08,2.85a5,5,0,0,0-1.79-.3c-3.87,0-5.96,2.89-5.96,7.07a6.824,6.824,0,0,0,1.97,5.28,4.826,4.826,0,0,0,3.12,1.18,7.883,7.883,0,0,0,2.05-.38c-0.83,2.77-3.15,4.75-5.43,6.23l4.25,2.2a26.345,26.345,0,0,0,5.17-7.07,17.045,17.045,0,0,0,1.94-7.33,9.882,9.882,0,0,0-1.1-4.63v-5.32C1773.8,3160.62,1776.3,3160.54,1779.19,3160.54Zm-13.83,9.61c0,2.7-1.82,3.54-2.62,3.54-0.87,0-2.09-.88-2.09-3.16,0-2.01,1.06-3.34,2.58-3.34a1.975,1.975,0,0,1,1.41.53A3.53,3.53,0,0,1,1765.36,3170.15Zm10.3,24.25a5.87,5.87,0,1,0,5.89,5.89A5.885,5.885,0,0,0,1775.66,3194.4Zm0,1.86a4.03,4.03,0,1,1,0,8.06A4.03,4.03,0,0,1,1775.66,3196.26Z" transform="translate(-1747.16 -2507.5)"/>
</svg>
