<svg xmlns="http://www.w3.org/2000/svg" width="411.187" height="58.75" viewBox="0 0 411.187 58.75">
  <defs>
    <style>
      .cls-1 {
        fill-rule: evenodd;
      }
    </style>
  </defs>
  <path id="商品のご案内" class="cls-1" d="M97.966,5088.98v-5.81H73.747v-2.51c0.792-.52,1.188-0.79,1.188-1.18,0-.6-0.858-0.66-1.386-0.73l-7.787-.59v5.01H41.607v5.81H53.948a49.325,49.325,0,0,1,2.838,6.6H43.719v39.46h7.325v-21.38l4.554,3.56c0.594-.33.858-0.46,1.584-0.92v15.24h6.8v-1.38H82.986v-1.32l2.838,6.53h3.96c4.224,0,6.269-1.58,6.269-5.14v-34.65H83.316a38.921,38.921,0,0,0,2.442-6.6H97.966Zm-8.843,37.35c0,2.25-.594,2.38-2.574,2.38-1.32,0-1.782-.07-3.564-0.2v-12.8H57.974a21.293,21.293,0,0,0,6.2-7.72c0.462-.86.594-0.86,1.65-1.26a0.782,0.782,0,0,0,.528-0.72,1.913,1.913,0,0,0-1.122-1.13l-5.148-2.77h9.965v6.6c0,2.84,1.254,4.36,5.082,4.36h7.589c4.62,0,5.148-4.43,5.478-7.2l-5.346-2.11c-0.2,2.71-.792,3.1-1.782,3.1H77.508c-1.122,0-1.452-.19-1.452-0.99v-3.76H89.123v24.22ZM77.64,5088.98a47.322,47.322,0,0,1-3.1,6.6H65.3a54.757,54.757,0,0,0-2.9-6.6H77.64Zm-1.584,36.03H63.979v-4.09H76.056v4.09Zm-16.3-22.9a18.53,18.53,0,0,1-8.711,10.69v-10.69h8.711Zm97.083,0.53v-22.97H125.1v22.97h31.743Zm-7.655-6.73h-16.7v-9.51h16.7v9.51Zm18.676,37.48v-26.72H142.321v26.72h7.127v-1.91H160.6v1.91h7.259Zm-7.259-8.58H149.448v-11.35H160.6v11.35Zm-22.306,8.58v-26.72H114.141v26.72h7v-1.71H131.3v1.71h6.995Zm-6.995-8.58H121.137v-11.35H131.3v11.35Zm108.038-18.34c0-14.72-10.823-24.02-24.549-24.02-17.027,0-29.1,13.33-29.1,27.98,0,11.81,10.823,17.75,13.2,17.75,3.432,0,6.467-5.54,8.447-9.64,2.178-4.42,6.072-13.66,8.184-29.36,2.441,0.19,7.061.46,11.219,4.42a15.566,15.566,0,0,1,4.751,11.55,20.647,20.647,0,0,1-4.751,13.13c-4.026,4.82-8.91,6.2-11.879,7.06l4.883,6.8c3.564-1.45,10.427-4.29,15.377-11.62A24.653,24.653,0,0,0,239.338,5106.47Zm-31.677-16.11c-1.32,10.3-7,27.52-10.427,27.52-1.188,0-4.224-2.77-4.224-8.11a21.588,21.588,0,0,1,6.6-14.65A19.431,19.431,0,0,1,207.661,5090.36Zm106.587-7.78a30.521,30.521,0,0,0-5.609-5.41l-2.838,2.97a27.839,27.839,0,0,1,5.411,5.6Zm-3.7,7.52a28.024,28.024,0,0,0-5.477-5.87l-2.838,2.97a26.921,26.921,0,0,1,5.478,5.87Zm-10.163-.73-2.969-5.34a104.286,104.286,0,0,1-15.047,1.05,117.043,117.043,0,0,1-16.631-1.18l1.98,7.26c3.1,0.19,5.016.26,8.975,0.26,5.016,0,7.326-.13,10.164-0.33-2.508,2.31-5.148,4.69-6.666,6.01l4.554,4.75C290.16,5097.23,295.242,5092.94,300.389,5089.37Zm3.1,39.21-0.462-7.92a92.411,92.411,0,0,1-20.392,2.11c-11.219,0-11.681-1.85-11.681-3.7,0-2.37,2.64-4.68,3.7-5.54l-5.742-4.69c-1.98,1.78-6.4,5.74-6.4,11.68,0,6.67,6.335,9.44,21.25,9.44A162.032,162.032,0,0,0,303.491,5128.58Zm79.529-30.16v-5.48H353.653a19.069,19.069,0,0,0,1.716-2.51c0.528-.13,1.584-0.46,1.584-1.06,0-.39-0.4-0.66-1.584-0.85l-3.894-.73h23.032v3.23h7.325v-8.57H359v-1.52a4.5,4.5,0,0,1,.99-1.06,0.92,0.92,0,0,0,.462-0.66c0-.59-1.056-0.72-1.452-0.72l-8.183-.6v4.56h-22.57v8.64h7.061v-3.3h13.661a36.65,36.65,0,0,1-3.695,5.15H326.925v5.48h13.463a49.843,49.843,0,0,1-4.949,4.55l6.8,3.1a18.824,18.824,0,0,0,1.914-1.71,59.97,59.97,0,0,1,6,1.25c-3.827,1.85-9.767,2.97-15.838,2.97-1.716,0-2.9-.07-3.96-0.13l2.838,5.61a59.5,59.5,0,0,0,25.407-5.94c3.432,0.85,11.22,4.22,15.575,6.66l4.422-5.28A78.812,78.812,0,0,0,365,5104.16a40.8,40.8,0,0,0,5.939-5.74H383.02Zm-22.438,0a24.35,24.35,0,0,1-3.761,3.43c-1.518-.33-5.214-1.26-8.844-1.72,0.264-.26,1.32-1.52,1.452-1.71h11.153Zm22.5,23.03v-5.48H358.339v-1.12a9.363,9.363,0,0,0,.659-0.79,0.881,0.881,0,0,0,.4-0.6c0-.59-0.989-0.66-1.122-0.66l-7.259-.26v3.43H326.991v5.48H344.48c-4.686,4.29-11.813,7.39-18.215,8.91l4.686,5.54c5.279-1.78,14.651-6.27,20.062-11.42v10.36h7.326v-10.88c3.3,4.22,10.427,9.5,19.534,11.41l3.827-5.54a31.566,31.566,0,0,1-17.092-8.38h18.478Zm69.7,6.73v-39.14h-22.9c0-1.18,0-6.99.066-7.39a1.564,1.564,0,0,1,.99-1.25,1.373,1.373,0,0,0,.792-0.99,0.736,0.736,0,0,0-.792-0.66l-8.843-.33c0.132,2.38.2,3.63,0.2,10.62h-22.5v45.21h7.457v-38.01h14.519c-1.584,8.58-5.213,14.71-14.255,20.19l5.874,5.35c5.741-4.49,9.5-8.45,12.869-14.92,3.695,7.33,7.259,10.83,13.2,14.39l5.807-5.35c-10.163-4.88-13.661-11.81-15.443-19.66h15.773v29.3c0,1.91-1.122,2.11-3.168,2.11a29.043,29.043,0,0,1-4.487-.26l2.706,7.59C450.077,5134.98,452.783,5134.05,452.783,5128.18Z" transform="translate(-41.594 -5077.16)"/>
</svg>
