<svg xmlns="http://www.w3.org/2000/svg" width="413.156" height="58.75" viewBox="0 0 413.156 58.75">
  <defs>
    <style>
      .cls-1 {
        fill-rule: evenodd;
      }
    </style>
  </defs>
  <path id="店舗のご案内" class="cls-1" d="M102.1,8961.88v-6.86H77.943v-3.7a1.456,1.456,0,0,1,.792-0.72,1.714,1.714,0,0,0,.924-0.99c0-.73-0.792-0.93-1.452-0.99l-8.645-.53v6.93h-19.8v18.68c0,15.9-4.026,23.62-6.335,28.04l7.193,2.71a57.872,57.872,0,0,0,4.62-13.13,85,85,0,0,0,2.112-19.08v-10.36H71.409v19.67H59.332v23.62h7.259v-1.71H89.426v1.71h7.655v-23.62H79v-6.67h22.24v-6.79H79v-3.24c0.924-.46,1.452-0.66,1.452-1.19,0-.59-1.122-0.85-1.848-0.99l-4.026-.79H102.1Zm-12.671,34.91H66.592v-8.18H89.426v8.18Zm84.28-35.5v-6.01h-6.995l3.564-1.65a24.41,24.41,0,0,0-3.168-5.61l-5.148,2.18a0.677,0.677,0,0,0,.264-0.53c0-.59-0.726-0.72-1.188-0.79l-7.193-.86v7.26H142.1v2.58a23.156,23.156,0,0,1-8.117-7.99,0.481,0.481,0,0,0,.4-0.39,0.747,0.747,0,0,0-.66-0.4l-6.336-1.85a38.3,38.3,0,0,1-12.671,14.78l5.742,4.56a1.54,1.54,0,0,0,.33-0.27v5.15h6.071v3.5h-9.7v5.54H141.3v-5.54h-7.457v-3.5h6.071v-5.61h-6.071v-3.17c0-.33,1.386-1.05,1.518-1.25a28.849,28.849,0,0,0,3.233,2.64l3.5-3.23v0.46h11.747v4.42H142.161v39.6h6.27v-13.14h5.411v13.14h6.468v-13.14h5.741v4.23a1.914,1.914,0,0,1-1.914,1.98,26.025,26.025,0,0,1-3.168-.2l2.442,7.32c7.524-.06,8.975-1.84,8.975-5.41v-34.38H160.31v-4.42h13.4Zm-7.655,14.78H160.31v-4.82h5.741v4.82Zm0,10.82H160.31v-5.41h5.741v5.41Zm-12.209-10.82h-5.411v-4.82h5.411v4.82Zm0,10.82h-5.411v-5.41h5.411v5.41Zm-20.062,10.3h-8.249v-8.71h8.249v8.71Zm6.335,8.12V8982.8H119.129v22.51h6.4v-1.92h8.249v1.92h6.335Zm24.022-50.03H160.31v-3.56a3.213,3.213,0,0,1,1.187-1.12A11.205,11.205,0,0,1,164.137,8955.28Zm-30.159,4.75-7-.26c1.122-1.25,2.574-2.9,3.3-3.89A42.273,42.273,0,0,0,133.978,8960.03Zm-7.128,5.81h-5.609c2.112-1.98,4.092-4.16,5.609-5.87v5.87Zm116.289,10.63c0-14.72-10.824-24.02-24.55-24.02-17.027,0-29.1,13.33-29.1,27.98,0,11.81,10.823,17.75,13.2,17.75,3.432,0,6.467-5.54,8.447-9.64,2.178-4.42,6.072-13.66,8.184-29.36,2.441,0.19,7.061.46,11.219,4.42a15.566,15.566,0,0,1,4.751,11.55,20.647,20.647,0,0,1-4.751,13.13c-4.026,4.82-8.91,6.2-11.879,7.06l4.883,6.8c3.564-1.45,10.427-4.29,15.377-11.62A24.653,24.653,0,0,0,243.139,8976.47Zm-31.678-16.11c-1.32,10.3-7,27.52-10.427,27.52-1.188,0-4.223-2.77-4.223-8.11a21.586,21.586,0,0,1,6.6-14.65A19.431,19.431,0,0,1,211.461,8960.36Zm106.587-7.78a30.489,30.489,0,0,0-5.609-5.41l-2.838,2.97a27.839,27.839,0,0,1,5.411,5.6Zm-3.695,7.52a28.052,28.052,0,0,0-5.478-5.87l-2.838,2.97a26.921,26.921,0,0,1,5.478,5.87Zm-10.164-.73-2.969-5.34a104.277,104.277,0,0,1-15.047,1.05,117.043,117.043,0,0,1-16.631-1.18l1.98,7.26c3.1,0.19,5.016.26,8.975,0.26,5.016,0,7.326-.13,10.164-0.33-2.508,2.31-5.148,4.69-6.666,6.01l4.554,4.75C293.96,8967.23,299.042,8962.94,304.189,8959.37Zm3.1,39.21-0.462-7.92a92.411,92.411,0,0,1-20.392,2.11c-11.219,0-11.681-1.85-11.681-3.7,0-2.37,2.64-4.68,3.7-5.54l-5.742-4.69c-1.98,1.78-6.4,5.74-6.4,11.68,0,6.67,6.335,9.44,21.25,9.44A162.032,162.032,0,0,0,307.291,8998.58Zm79.529-30.16v-5.48H357.453a19.069,19.069,0,0,0,1.716-2.51c0.528-.13,1.584-0.46,1.584-1.06,0-.39-0.4-0.66-1.584-0.85l-3.894-.73h23.032v3.23h7.326v-8.57H362.8v-1.52a4.5,4.5,0,0,1,.99-1.06,0.92,0.92,0,0,0,.462-0.66c0-.59-1.056-0.72-1.452-0.72l-8.183-.6v4.56h-22.57v8.64h7.062v-3.3h13.66a36.65,36.65,0,0,1-3.695,5.15H330.725v5.48h13.463a49.843,49.843,0,0,1-4.949,4.55l6.8,3.1a18.824,18.824,0,0,0,1.914-1.71,59.97,59.97,0,0,1,6,1.25c-3.827,1.85-9.767,2.97-15.838,2.97-1.716,0-2.9-.07-3.96-0.13l2.838,5.61a59.508,59.508,0,0,0,25.408-5.94c3.431,0.85,11.219,4.22,15.574,6.66l4.422-5.28a78.812,78.812,0,0,0-13.6-5.34,40.8,40.8,0,0,0,5.939-5.74H386.82Zm-22.438,0a24.3,24.3,0,0,1-3.761,3.43c-1.518-.33-5.214-1.26-8.844-1.72,0.264-.26,1.32-1.52,1.452-1.71h11.153Zm22.5,23.03v-5.48H362.139v-1.12a9,9,0,0,0,.659-0.79,0.881,0.881,0,0,0,.4-0.6c0-.59-0.989-0.66-1.121-0.66l-7.26-.26v3.43H330.791v5.48H348.28c-4.686,4.29-11.813,7.39-18.215,8.91l4.686,5.54c5.279-1.78,14.651-6.27,20.062-11.42v10.36h7.326v-10.88c3.3,4.22,10.427,9.5,19.534,11.41l3.828-5.54a31.565,31.565,0,0,1-17.093-8.38h18.478Zm69.7,6.73v-39.14h-22.9c0-1.18,0-6.99.066-7.39a1.564,1.564,0,0,1,.989-1.25,1.373,1.373,0,0,0,.792-0.99,0.736,0.736,0,0,0-.792-0.66l-8.843-.33c0.132,2.38.2,3.63,0.2,10.62h-22.5v45.21h7.457v-38.01h14.519c-1.584,8.58-5.213,14.71-14.255,20.19l5.874,5.35c5.741-4.49,9.5-8.45,12.869-14.92,3.7,7.33,7.259,10.83,13.2,14.39l5.807-5.35c-10.163-4.88-13.661-11.81-15.442-19.66h15.772v29.3c0,1.91-1.122,2.11-3.168,2.11a29.043,29.043,0,0,1-4.487-.26l2.706,7.59C453.877,9004.98,456.583,9004.05,456.583,8998.18Z" transform="translate(-43.438 -8947.16)"/>
</svg>
