<svg xmlns="http://www.w3.org/2000/svg" width="205.563" height="29.56" viewBox="0 0 205.563 29.56">
  <defs>
    <style>
      .cls-1 {
        fill-rule: evenodd;
      }
    </style>
  </defs>
  <path id="鳩のつぶやき" class="cls-1" d="M493.1,1406.08v-2.38H479.879v-1.19h11.049v-10.2H484.3a8.932,8.932,0,0,1,.578-1.4,2.8,2.8,0,0,0,.815-0.64c0-.31-0.442-0.34-0.781-0.38l-3.57-.4c-0.136.47-1.19,2.41-1.36,2.82h-3.5v15.57l-1.8-.85c-0.136.75-.272,1.66-0.68,1.66s-0.374-.1-0.306-1.08l0.918-12.14-4.182.27c0.068-1.22.136-3.33,0.136-3.47,0-.85-0.068-1.32.408-1.63a0.816,0.816,0,0,0,.476-0.47c0-.28-0.442-0.31-0.952-0.34l-3.536-.31c0.17,3.26.17,4.49,0.17,6.42l-2.991.17,0.136,3.13,2.719-.13c-0.748,8.5-2.617,12.17-5.133,16.04l3.739,1.06c3.5-6.12,4.284-13.7,4.624-17.24l0.952-.07c-0.238,3.57-.646,9.18-0.782,10.44a9.771,9.771,0,0,0-.1,1.33,1.773,1.773,0,0,0,1.87,2h2.72a11.509,11.509,0,0,1-2.074,3.94l3.161,1.64a21.537,21.537,0,0,0,2.108-5.68,0.454,0.454,0,0,0,.476-0.37,0.852,0.852,0,0,0-.646-0.51l-1.292-.51a3.856,3.856,0,0,0,.374-1.16h12.375c0,0.2-.1,4.35-1.156,5.1-0.51.37-.748,0.37-2.992,0.3l1.36,3.37a6.524,6.524,0,0,0,3.91-.92c2.142-1.6,2.516-9.45,2.55-10.5H479.879v-1.29H493.1Zm-5.78-9.86h-7.445v-1.43h7.445v1.43Zm0,3.67h-7.445v-1.43h7.445v1.43Zm0.306,13.6a10.446,10.446,0,0,0-.782-2.79l-1.971.41a16.1,16.1,0,0,1,.577,3.09Zm-3.093,1.46a13.325,13.325,0,0,0-.748-3.64l-1.972.24a17.371,17.371,0,0,1,.442,4.08Zm-3.162,1.12a19.487,19.487,0,0,0-.646-4.38l-2.21.03a17.467,17.467,0,0,1,.2,3.19,13.231,13.231,0,0,1-.068,1.64Zm46.613-12.1c0-7.58-5.576-12.38-12.647-12.38a14.665,14.665,0,0,0-14.992,14.42c0,6.08,5.575,9.14,6.8,9.14,1.768,0,3.332-2.85,4.351-4.96a48.31,48.31,0,0,0,4.216-15.13,8.688,8.688,0,0,1,5.779,2.28,8.013,8.013,0,0,1,2.448,5.95,10.62,10.62,0,0,1-2.448,6.76,11.387,11.387,0,0,1-6.119,3.64l2.516,3.5a16.438,16.438,0,0,0,7.921-5.98A12.7,12.7,0,0,0,527.988,1403.97Zm-16.319-8.3c-0.68,5.31-3.6,14.18-5.371,14.18-0.612,0-2.176-1.43-2.176-4.18a11.124,11.124,0,0,1,3.4-7.55A10.029,10.029,0,0,1,511.669,1395.67Zm51.543,7.65c0-7.31-5.882-9.62-10.437-9.62-2.312,0-4.42.51-8.5,1.53a69.436,69.436,0,0,1-8.737,1.63l1.835,4.29c1.156-.31,6.732-1.94,7.99-2.28a34.154,34.154,0,0,1,7.547-1.53c2.584,0,6.255,1.29,6.255,5.57,0,5.41-6.289,7.79-12.1,7.79a26.232,26.232,0,0,1-3.331-.17l1.734,4.45a27.521,27.521,0,0,0,11.558-2.58C560.016,1410.87,563.212,1408.29,563.212,1403.32Zm37.2-8.5a15.675,15.675,0,0,0-2.992-2.75l-1.428,1.63a19.593,19.593,0,0,1,3.026,2.75Zm-2.618,3.2a21.027,21.027,0,0,0-2.992-2.76l-1.428,1.67a15.623,15.623,0,0,1,2.992,2.75Zm-7.173-3.74a34.434,34.434,0,0,0-7.786-4.01L581,1392.78a30.249,30.249,0,0,1,7.479,4.46ZM600,1409.51a28.548,28.548,0,0,0-6.8-7.75l-2.141,2.48a24.778,24.778,0,0,1,6.085,7.96Zm-8.567,2.96c0-1.84-.816-3.78-3.774-7.01-1.9-2.04-2.346-2.51-2.346-3.23a3.641,3.641,0,0,1,1.088-2.1l-3.026-2.25a6.364,6.364,0,0,0-1.835,4.05c0,2,1.223,3.47,2.447,4.72,1.7,1.81,3.23,3.4,3.23,5.24,0,1.73-1.632,1.87-2.482,1.87a11.675,11.675,0,0,1-4.691-1.09l0.51,3.94a23.591,23.591,0,0,0,4.249.51C586.843,1417.12,591.433,1416.65,591.433,1412.47Zm-10.981-4.35-1.224-3.4a25.147,25.147,0,0,1-8.227,5.71l1.8,3.94A38.891,38.891,0,0,0,580.452,1408.12Zm54.67-8.71c0-4.28-3.672-5.98-6.9-5.98a14.818,14.818,0,0,0-4.181.75,36.8,36.8,0,0,0-3.4-4.05l-3.5,1.63a19.84,19.84,0,0,1,3.433,3.74c-1.428.61-2.448,1.09-4.283,2.04-0.578-1.05-1.6-2.92-1.836-3.26a5.23,5.23,0,0,1-.442-0.85c0-.17.272-0.85,0.272-1.02,0-.61-0.952-0.14-1.36.03l-3.6,1.57a35.955,35.955,0,0,1,3.5,5.4c-4.726,2.72-5.269,3.03-5.745,3.3l3.059,3.37a32.34,32.34,0,0,1,4.42-3.34,78.432,78.432,0,0,1,5.779,15.3l3.808-1.7a102.782,102.782,0,0,0-6.256-15.57,48.328,48.328,0,0,1,4.692-2.31,25.754,25.754,0,0,1,1.7,3.09l3.671-1.56c-0.781-1.29-1.325-2.18-1.8-2.82a8.668,8.668,0,0,1,2.209-.41c1.088,0,3.162.68,3.162,2.55,0,2.35-2.482,4.49-6.561,4.49a14.976,14.976,0,0,1-2.108-.17l1.292,3.7C626.793,1407.27,635.122,1407.03,635.122,1399.41Zm32.3,0.07-0.612-3.4a39.094,39.094,0,0,1-6.187,3.06c-0.544-1.19-.68-1.53-1.122-2.58a22.192,22.192,0,0,0,5.371-2.32l-0.748-3.29a33.371,33.371,0,0,1-5.813,2.62,29.93,29.93,0,0,1-1.02-3.13,0.7,0.7,0,0,1,.306-0.48,0.634,0.634,0,0,0,.272-0.44c0-.41-0.85-0.31-1.122-0.27l-3.875.44c0.544,1.6.917,2.69,1.7,4.79a41.584,41.584,0,0,1-7.921.68l1.054,3.27a39.447,39.447,0,0,0,8.091-.92c0.34,0.78.714,1.63,1.224,2.79a45.478,45.478,0,0,1-10.709,1.02l1.19,3.43a43.648,43.648,0,0,0,10.913-1.5c0.646,1.26.952,1.87,1.768,3.34a25.649,25.649,0,0,0-4.862-.55c-3.841,0-7.513,1.26-7.513,5.92,0,4.48,4.216,6.42,10.335,6.42a33.621,33.621,0,0,0,5.371-.41l0.34-4.01a24.7,24.7,0,0,1-6.8.92c-1.156,0-5.575,0-5.575-2.89,0-1.83,1.87-2.79,4.113-2.79a19.057,19.057,0,0,1,8.907,2.59l2.074-2.59a36.633,36.633,0,0,1-4.487-7.07A25.13,25.13,0,0,0,667.422,1399.48Z" transform="translate(-461.875 -1389.22)"/>
</svg>
