<svg xmlns="http://www.w3.org/2000/svg" width="242.5" height="51.97" viewBox="0 0 242.5 51.97">
  <defs>
    <style>
      .cls-1 {
        fill-rule: evenodd;
      }
    </style>
  </defs>
  <path id="お知らせ" class="cls-1" d="M300.961,1644.33a24.216,24.216,0,0,1,1.8-1.74c5.46,5.76,6.96,7.38,9.54,10.13l6.36-2.51c0.06-7.32.06-8.4,0.12-17.94a26.891,26.891,0,0,1,9.119-2.1c5.46,0,8.34,3.96,8.34,7.98,0,4.2-2.46,6.36-4.62,6.36-1.86,0-2.34-1.56-3.06-4.02l-5.58,2.22c0.84,4.38,1.68,8.51,8.28,8.51,6.42,0,11.22-5.81,11.22-13.19,0-7.5-5.16-13.68-14.46-13.68a33.215,33.215,0,0,0-9.239,1.38l0.06-5.94a52.328,52.328,0,0,0,9.359-2.58v-6.84a38.088,38.088,0,0,1-9.239,3.12c0.06-1.14.24-7.02,0.48-7.38a6.049,6.049,0,0,0,1.02-1.14c0-.3,0-0.72-1.68-0.96l-6.66-.9c0.06,3.9.06,4.44,0.12,11.22-1.74.12-2.64,0.18-4.14,0.18a48.344,48.344,0,0,1-5.88-.3l0.9,6.78a58.884,58.884,0,0,0,9.12-.3l0.06,7.74c-4.02,2.16-5.16,2.82-15,9.18Zm11.34,0.48a50.444,50.444,0,0,1-5.46-5.64,61.55,61.55,0,0,1,5.46-3.66v9.3Zm34.738-25.38a44.112,44.112,0,0,0-11.819-6.78l-3.9,5.28a34.9,34.9,0,0,1,11.82,6.84Zm64.68,31.68v-43.02H389.34v45.23h6.48v-6.59h9.36v4.38h6.539Zm-23.4-6.66a26.9,26.9,0,0,1-9.539-12.9l0.12-.54h8.639v-6.24H379.5c0.36-4.02.42-6.72,0.48-9.6h6.6v-5.82H372.121a37.527,37.527,0,0,1,.96-3.72,1.642,1.642,0,0,1,.9-0.72,0.752,0.752,0,0,0,.6-0.66,1.127,1.127,0,0,0-.96-0.66l-6.66-1.62c-2.04,10.2-4.38,14.52-6.839,18.36l6.419,2.46a32.245,32.245,0,0,0,3.78-7.62h2.7a83.081,83.081,0,0,1-.12,9.6H361.262v6.24h10.919c-2.04,9.12-5.04,13.2-12.719,18.96l6.479,3.95c5.28-4.73,7.74-8.09,10.2-13.85a38.4,38.4,0,0,0,7.5,9.36Zm16.86-3.78h-9.36v-26.52h9.36v26.52Zm53.7-31.92a71.284,71.284,0,0,0-14.339-6.18l-2.58,5.94c7.14,2.52,10.019,4.08,13.859,6.54Zm11.04,26.76c0-8.7-7.02-13.14-13.32-13.14a23.071,23.071,0,0,0-14.759,6.06,76.655,76.655,0,0,1,3.6-13.2l-6.9-2.7c-1.32,4.56-4.2,14.76-4.68,22.92l5.22,2.76c6.18-7.2,12.239-9.6,16.379-9.6,4.5,0,7.56,2.46,7.56,6.3,0,5.52-5.1,11.34-16.259,11.34a60.084,60.084,0,0,1-7.5-.66l3.18,7.37C449.881,1652.78,469.92,1652.42,469.92,1635.51Zm69.9-13.62-0.06-6.6c-5.52.9-7.44,1.14-10.8,1.62l0.3-8.94a0.907,0.907,0,0,1,.54-0.72,0.935,0.935,0,0,0,.66-0.78c0-.36,0-0.72-1.98-0.96l-6.12-.72a90.252,90.252,0,0,1,.54,12.9c-6.9.96-9.119,1.2-12.719,1.62,0-6.9.06-7.26,0.12-8.22a1.249,1.249,0,0,1,.6-0.9c0.9-.6,1.02-0.66,1.02-0.96,0-.78-0.78-0.84-2.04-1.02l-6.78-.9c0.3,4.2.36,10.38,0.36,12.84-4.5.48-6.3,0.66-11.04,1.08l0.24,6.6c5.4-.84,6-0.9,10.8-1.62l0.06,8.22c0.06,11.16,1.68,15.36,15.179,15.36a134.907,134.907,0,0,0,16.08-.9l0.54-7.2a51.347,51.347,0,0,1-15.42,2.1c-8.879,0-9.959-1.74-9.959-8.58,0-.36,0-3.96.12-9.96,5.4-.72,6.419-0.9,12.779-1.68,0,6.54-.18,7.62-3.84,7.62a14.414,14.414,0,0,1-3.539-.42l1.5,6.3a20.962,20.962,0,0,0,3.48.24c4.5,0,6.42-1.32,7.32-3.84,0.6-1.68.72-3.48,1.02-10.56C534.42,1622.25,537.18,1622.01,539.82,1621.89Z" transform="translate(-297.312 -1601.97)"/>
</svg>
