<svg xmlns="http://www.w3.org/2000/svg" width="654.156" height="28.9" viewBox="0 0 654.156 28.9">
  <defs>
    <style>
      .cls-1 {
        fill-rule: evenodd;
      }
    </style>
  </defs>
  <path id="豊島屋は鎌倉を中心に店舗展開しています_" data-name="豊島屋は鎌倉を中心に店舗展開しています。 " class="cls-1" d="M69.931,9532.26v-8.64h-5.92v-0.92a2.612,2.612,0,0,1,.352-0.32,0.591,0.591,0,0,0,.192-0.32,0.828,0.828,0,0,0-.736-0.32l-2.976-.2v2.08H57.8v-0.89a0.386,0.386,0,0,1,.256-0.32,0.372,0.372,0,0,0,.256-0.32c0-.26-0.384-0.32-0.576-0.32l-3.232-.16v2.01H48.845v8.64H69.931Zm-9.087-5.31H57.8v-1.21h3.04v1.21Zm0,3.23H57.8v-1.31h3.04v1.31Zm5.5-3.23H64.012v-1.21h2.336v1.21Zm0,3.23H64.012v-1.31h2.336v1.31Zm-11.839-3.23h-2.4v-1.21h2.4v1.21Zm0,3.23h-2.4v-1.31h2.4v1.31Zm18.559,18.75v-2.75H65.26a12.224,12.224,0,0,0,.8-1.37,1.068,1.068,0,0,0,.768-0.55,0.5,0.5,0,0,0-.448-0.38l-2.176-.61h4.608v-6.78H49.933v6.78H53.2l-1.248.74a17.6,17.6,0,0,1,1.7,2.17H45.581v2.75H73.067ZM65.324,9541H53.549v-2.18H65.324V9541Zm-2.464,2.27a17.957,17.957,0,0,1-1.376,2.91H56.076l1.184-.73a15.452,15.452,0,0,0-1.472-2.18H62.86Zm9.759-7.78v-2.27H45.965v2.27H72.619Zm34.048,1.44v-2.11H87.277v-1.15h15.23v-9.47H92.2a8.585,8.585,0,0,1,.736-1.41c0.1-.06.544-0.22,0.64-0.29a0.446,0.446,0,0,0,.256-0.32c0-.25-0.48-0.32-0.736-0.32l-4.256-.22a10.845,10.845,0,0,1-.48,2.56H83.6v16.61h3.84v2.91h-4.1v-1.41a0.424,0.424,0,0,1,.192-0.35,0.389,0.389,0,0,0,.16-0.29c0-.32-0.448-0.38-0.64-0.38l-3.008-.13v7.23h3.3v-2.05H98.06l1.888,2.85c2.432,0,3.551-.19,4.415-1.6,1.184-1.95,1.664-6.5,1.76-9.31H87.277v-1.35h19.39Zm-7.615-9.02H87.277v-1.5H99.052v1.5Zm0,3.71H87.277v-1.6H99.052v1.6Zm3.231,9.19a13.692,13.692,0,0,1-.511,3.64,1.69,1.69,0,0,1-1.856,1.51,6.777,6.777,0,0,1-1.7-.23v-3.13a0.593,0.593,0,0,1,.288-0.48,0.348,0.348,0,0,0,.128-0.26c0-.25-0.32-0.29-0.512-0.29l-3.168-.12v2.27H90.892v-2.91h11.391Zm38.784-8.04v-2.68H118.861v-1.28h20.958v-6.82h-24.99c0.32,2.98.448,7.42,0.448,10.59,0,5.28-.672,10.63-2.944,15.43l3.616,1.08a34.3,34.3,0,0,0,2.464-9.56,55.36,55.36,0,0,0,.416-6.76h5.6a17.855,17.855,0,0,1-1.5,2.79c-1.407,0-2.527,0-3.775-.1l0.416,2.85a0.564,0.564,0,0,0,.544.64,4.212,4.212,0,0,0,.736-0.45c0.224-.03,1.12-0.06,1.28-0.06,0.192,0,2.911-.16,4.8-0.29v2.27h-7.007v2.85h7.007v2.46h-8.863v3.01h22.686v-3.01H130.732v-2.46h6.847v-2.85h-6.847v-1.63a0.779,0.779,0,0,0,.448-0.45c0-.29-0.416-0.35-0.864-0.41,1.408-.13,3.328-0.29,5.056-0.52,1.215,1.22,1.727,1.83,2.111,2.24l2.528-2.24a51.349,51.349,0,0,0-4.7-4.64h5.759Zm-4.991-6.52H118.861v-1.57h17.215v1.57Zm-3.008,8.96c-1.472.12-2.4,0.19-6.3,0.28a26.269,26.269,0,0,0,1.568-2.72h4.16l-0.992,1.12C132.492,9534.73,132.556,9534.76,133.068,9535.21Zm41.535,7.74a25.677,25.677,0,0,0-5.5-3.01,78.532,78.532,0,0,1-.448-8.57,30.917,30.917,0,0,0,4-.9v-3.45a14.412,14.412,0,0,1-3.967,1.31,36.968,36.968,0,0,1,.448-3.97,1.116,1.116,0,0,0,.608-0.51c0-.19-0.1-0.35-0.768-0.45l-3.584-.58c-0.064,3.17-.064,3.52-0.128,5.92a24.534,24.534,0,0,1-2.976.19,16.31,16.31,0,0,1-2.88-.19l0.032,3.3a35.581,35.581,0,0,0,5.792-.26c0.064,2.18.16,3.52,0.416,7.33-0.64-.06-1.312-0.13-1.952-0.13-3.1,0-5.632,1.25-5.632,4.13,0,4.61,5.376,4.61,6.3,4.61,4.352,0,4.992-1.67,5.056-4.13a17.074,17.074,0,0,1,3.359,2.53Zm-18.27-2.82-2.016-1.37-1.312,1.92a31.529,31.529,0,0,1-.16-3.36,81.163,81.163,0,0,1,1.184-9.92,9.243,9.243,0,0,1,.7-2.18,5.2,5.2,0,0,0,.608-0.25,0.287,0.287,0,0,0,.128-0.23,1.25,1.25,0,0,0-.768-0.64l-3.1-1.21a60.616,60.616,0,0,0-1.952,14.97,34.424,34.424,0,0,0,1.216,9.92l2.944-.48A28.207,28.207,0,0,1,156.333,9540.13Zm9.5,2.02c0.064,1.66.128,2.4-1.984,2.4-1.888,0-2.816-.67-2.816-1.41s1.024-1.28,2.528-1.28A10.711,10.711,0,0,1,165.836,9542.15Zm43.007,3.55a21.407,21.407,0,0,1-4.7-5.05h3.583v-4.2h1.056v-2.49h-1.056v-3.94h-4.511v-1.25h5.6v-2.71h-4c0.384-.71.928-1.96,1.248-2.66a5.172,5.172,0,0,1,.448-0.26,0.356,0.356,0,0,0,.192-0.35,0.776,0.776,0,0,0-.544-0.41l-3.007-.9a26.266,26.266,0,0,1-1.728,4.58H197l1.856-.96a29.343,29.343,0,0,0-2.688-3.65l-2.816,1.5a17.085,17.085,0,0,1,2.208,3.11h-3.04a12.107,12.107,0,0,1-3.2-2.72,2.447,2.447,0,0,0,.32-0.55,0.85,0.85,0,0,0-.768-0.61l-2.912-.73a15.985,15.985,0,0,1-5.5,6.2l2.624,2.08a1.492,1.492,0,0,0,.256-0.25v1.66h2.176v1.57H182v3.01h3.52v7.58a25.74,25.74,0,0,1-4.384.42l0.576,3.42c0.1,0.48.224,0.64,0.448,0.64,0.16,0,.224-0.06.544-0.51a1.305,1.305,0,0,1,1.024-.42c0.736-.16,4-0.8,4.64-0.96,1.7-.38,2.463-0.6,3.1-0.8a7.435,7.435,0,0,1-2.175,1.32l2.623,2.49a21.116,21.116,0,0,0,3.936-4.51v4.74h2.88v-8.48h1.536v8.48h2.944v-5.22a16.146,16.146,0,0,0,3.487,4Zm-12.991-7.55H193.2v2.5h1.984a14.982,14.982,0,0,1-3.232,4.06l0.256-2.85a19.651,19.651,0,0,1-3.487.87v-1.64l2.111,0.87a18.44,18.44,0,0,0,1.408-3.71,0.731,0.731,0,0,0,.64-0.36,0.6,0.6,0,0,0-.544-0.48l-2.655-.86a11.012,11.012,0,0,1-.96,3.1v-3.93h3.2v-3.01h-3.007v-1.57h2.463v-3.01h-0.8l1.472-1.4v2.04h3.808v1.25h-2.976v2.5h2.976v1.44h-3.168v2.49h3.168v1.7Zm4.416,0h-1.536v-1.7h1.536v1.7Zm0-4.19h-1.536v-1.44h1.536v1.44Zm0-3.94h-1.536v-1.25h1.536v1.25Zm4.543,3.94h-1.6v-1.44h1.6v1.44Zm0,4.19h-1.6v-1.7h1.6v1.7Zm-15.1-10.02h-4.9a22.572,22.572,0,0,0,2.336-2.75A19.563,19.563,0,0,0,189.709,9528.13Zm-4.352,13.64a32.656,32.656,0,0,0-.992-5.06l-2.72.64a24.321,24.321,0,0,1,.768,5.02Zm55.006,8.32v-8.23H222.317c0.064-.45.16-1.12,0.224-1.5h16.606v-9.19H219.373c0,0.93.032,2.72,0.032,3.88,0,6.4-.672,9.24-4.032,12.92l3.072,1.76a15.651,15.651,0,0,0,3.744-7.36v7.72h3.583v-0.74h11.1v0.74h3.487Zm-4.639-15.33H222.7c0.032-.51.032-0.96,0.032-1.22h12.991v1.22Zm0,3.45H222.7c0-.64.032-0.7,0.032-1.21h12.991v1.21Zm1.152,8.45h-11.1v-2.27h11.1v2.27Zm6.655-19.07a29.084,29.084,0,0,1-11.455-5.09,0.409,0.409,0,0,0,.192-0.35,0.67,0.67,0,0,0-.672-0.41l-4-.26c-4.127,4.32-9.247,5.6-12.863,6.27l2.3,3.04a29.957,29.957,0,0,0,6.4-2.24v1.57h11.935v-1.73a31.793,31.793,0,0,0,5.887,2.21Zm-9.855-.06h-8.288a22.381,22.381,0,0,0,3.936-2.88A25.637,25.637,0,0,0,233.676,9527.53Zm40.415,7.61L273,9531.49c-1.5.68-1.919,0.87-5.663,2.63a4.289,4.289,0,0,0-4.352-3.23,6.223,6.223,0,0,0-2.752.67c0.544-.83.8-1.28,1.824-3.17a68.577,68.577,0,0,0,7.648-1.21l0.224-3.59a26.83,26.83,0,0,1-6.272,1.63c0.16-.35.96-2.14,0.992-2.17,0.032,0,.672-0.29.736-0.32a0.377,0.377,0,0,0,.32-0.35,0.811,0.811,0,0,0-.64-0.32l-4-.71a24.844,24.844,0,0,1-1.6,4.26,45.955,45.955,0,0,1-6.111-.13l0.384,3.33c1.344,0,2.336-.04,4.16-0.13a42.493,42.493,0,0,1-6.3,8.8l3.136,1.95c1.76-2.88,3.679-5.79,6.815-5.79a2.216,2.216,0,0,1,2.432,2.11c-4.8,2.46-7.743,3.97-7.743,7.94a4.374,4.374,0,0,0,1.216,3.13c2.015,2.15,5.727,2.15,7.519,2.15a52.94,52.94,0,0,0,7.615-.48v-3.62a36.858,36.858,0,0,1-8.159,1.02c-2.336,0-4.8-.41-4.8-2.49,0-2.24,3.328-3.91,4.544-4.51-0.032,1.4-.064,2.97-0.16,4.8h3.712c0-1.09-.064-5.06-0.064-6.31C270.028,9536.49,271.564,9535.94,274.091,9535.14Zm35.68,6.18v-14.24H298.732v-3.81a0.712,0.712,0,0,1,.448-0.48,0.616,0.616,0,0,0,.352-0.45,0.432,0.432,0,0,0-.48-0.35l-4-.35v5.44H284.077v14.37h3.68v-1.41h7.3v9.09h3.68v-9.09h7.359v1.28h3.68Zm-3.68-4.74h-7.359v-6.01h7.359v6.01Zm-11.039,0h-7.3v-6.01h7.3v6.01ZM336.2,9525.7a29.311,29.311,0,0,0-7.552-4.22l-1.856,3.1a35.336,35.336,0,0,1,7.136,4.39Zm8.863,13.63a34.472,34.472,0,0,0-5.727-8.83l-3.2,1.83a38.538,38.538,0,0,1,5.439,8.86Zm-4.448,4.1-3.391-1.73c-0.736,2.98-1.7,3.52-2.816,3.52h-3.264a1.6,1.6,0,0,1-1.728-1.66v-11.97a1.03,1.03,0,0,1,.448-0.8,0.814,0.814,0,0,0,.384-0.58,0.418,0.418,0,0,0-.48-0.38l-4.159-.48v15.81c0,2.4,1.151,3.52,3.711,3.52h6.816C338.636,9548.68,339.628,9546.82,340.619,9543.43Zm-16-10.18a0.466,0.466,0,0,0-.384-0.44l-3.776-1a45.231,45.231,0,0,1-3.968,10.15l3.616,1.25a60.346,60.346,0,0,0,3.52-8.74,1.22,1.22,0,0,1,.7-0.77A0.563,0.563,0,0,0,324.621,9533.25Zm50.558-4.8v-3.71a22.19,22.19,0,0,1-7.583,1.32,27.7,27.7,0,0,1-4.1-.36v3.52c1.7,0.16,3.168.16,3.424,0.16A42.764,42.764,0,0,0,375.179,9528.45Zm1.536,16.8v-3.96a26.118,26.118,0,0,1-7.295.99c-3.232,0-3.552-.87-3.584-3.91l-3.488.48c0.1,5.41,1.312,6.98,7.136,6.98A43.189,43.189,0,0,0,376.715,9545.25Zm-16.735-5.69-1.887-1.03c-0.7,1.25-.9,1.57-1.28,2.24a17.565,17.565,0,0,1-.448-4.38c0-4.83,1.376-10.62,1.856-10.91,0.064-.03.48-0.19,0.544-0.22a0.394,0.394,0,0,0,.16-0.29,1.365,1.365,0,0,0-.832-0.58l-3.264-1.18a63.256,63.256,0,0,0-1.344,7.29,56.713,56.713,0,0,0-.48,6.31,27.834,27.834,0,0,0,1.312,8.41,9.685,9.685,0,0,0,1.184,2.53l2.528-.99A28.36,28.36,0,0,1,359.98,9539.56Zm52.383-11.27v-3.32H400.652v-1.79a0.716,0.716,0,0,1,.384-0.36,0.784,0.784,0,0,0,.448-0.48,0.634,0.634,0,0,0-.7-0.48l-4.192-.25v3.36h-9.6v9.05c0,7.71-1.952,11.46-3.072,13.6l3.488,1.31a27.944,27.944,0,0,0,2.24-6.36,41.261,41.261,0,0,0,1.024-9.25v-5.03h6.815v9.54h-5.855v11.46h3.519v-0.84H406.22v0.84h3.711v-11.46h-8.767v-3.23h10.783v-3.3H401.164v-1.57a0.9,0.9,0,0,0,.7-0.57,0.985,0.985,0,0,0-.9-0.48l-1.952-.39h13.343Zm-6.143,16.93H395.148v-3.97H406.22v3.97Zm40.223-17.21v-2.91h-3.392l1.728-.8a11.488,11.488,0,0,0-1.536-2.72l-2.5,1.05a0.327,0.327,0,0,0,.128-0.25,0.536,0.536,0,0,0-.576-0.39l-3.488-.41v3.52h-5.7v1.24a11.048,11.048,0,0,1-3.935-3.87,0.23,0.23,0,0,0,.192-0.19,0.371,0.371,0,0,0-.32-0.19l-3.072-.9a18.541,18.541,0,0,1-6.144,7.17l2.784,2.21a1.41,1.41,0,0,0,.16-0.13v2.49h2.944v1.7h-4.7v2.69h11.711v-2.69h-3.615v-1.7h2.943v-2.72h-2.943v-1.53a3.536,3.536,0,0,1,.735-0.61,13.567,13.567,0,0,0,1.568,1.28l1.7-1.57v0.23h5.7v2.14h-5.664v19.2h3.04v-6.37h2.624v6.37h3.136v-6.37h2.783v2.05a0.927,0.927,0,0,1-.928.96,12.238,12.238,0,0,1-1.535-.1l1.184,3.56c3.647-.04,4.351-0.9,4.351-2.63v-16.67h-5.855v-2.14h6.5Zm-3.712,7.16h-2.783v-2.33h2.783v2.33Zm0,5.25h-2.783v-2.62h2.783v2.62Zm-5.919-5.25h-2.624v-2.33h2.624v2.33Zm0,5.25h-2.624v-2.62h2.624v2.62Zm-9.727,4.99h-4v-4.22h4v4.22Zm3.071,3.94v-10.91H419.981v10.91h3.1v-0.93h4v0.93h3.071ZM441.8,9525.1h-1.855v-1.73a1.621,1.621,0,0,1,.576-0.55A5.44,5.44,0,0,1,441.8,9525.1Zm-14.622,2.3-3.392-.13c0.544-.61,1.248-1.41,1.6-1.89A20.7,20.7,0,0,0,427.181,9527.4Zm-3.456,2.81h-2.72c1.024-.96,1.984-2.01,2.72-2.84v2.84Zm56.286,15.91a15.409,15.409,0,0,1-5.247-2.02c1.119-1.02,1.951-1.66,2.5-2.11a1.289,1.289,0,0,1,.768-0.19c0.32,0,.512,0,0.512-0.26a0.557,0.557,0,0,0-.192-0.35l-1.952-1.76h3.488v-2.85h-6.111v-2.27h5.215v-2.75h-5.215v-1.06a0.585,0.585,0,0,0,.48-0.41,1.049,1.049,0,0,0-1.024-.48l-2.016-.32h7.967v-7.46H454.253c0.192,3.59.384,7.71,0.384,10.98a37.609,37.609,0,0,1-1.216,9.85,20.379,20.379,0,0,1-1.824,4.71l3.424,1.08a27.775,27.775,0,0,0,2.72-9.02h3.616v5.86a32.552,32.552,0,0,1-3.84.38l0.384,3.23a0.746,0.746,0,0,0,.512.83,2.1,2.1,0,0,0,.576-0.51,2.37,2.37,0,0,1,.992-0.29c1.983-.32,5.087-0.89,9.311-1.85l0.16-3.11a41.017,41.017,0,0,1-4.384.8l0.032-5.34h1.472a17.066,17.066,0,0,0,5.184,6.53,19.519,19.519,0,0,0,5.5,2.94Zm-9.823-14.56H465.74v-1.09a0.591,0.591,0,0,0,.352-0.38,1.05,1.05,0,0,0-.9-0.48l-1.984-.32h6.976v2.27Zm0,5.02H465.74v-2.27h4.448v2.27Zm-7.968,0H458c0.064-1.53.064-2.94,0.064-3.65v-3.64h4.159v2.27h-3.3v2.75h3.3v2.27Zm13.407-10.08H458.061v-1.88h17.566v1.88Zm-0.543,12.93a12.577,12.577,0,0,1-2.688,2.72,9.618,9.618,0,0,1-2.176-2.72h4.864Zm38.527,6.05V9522.5H501.26v9.83h8.991v12.28a1.018,1.018,0,0,1-1.216,1.12h-2.111l1.536,3.36h1.951C512.907,9549.09,513.611,9547.53,513.611,9545.48Zm-4.991-3.71v-2.85h-3.968v-2.34h3.136v-2.75H492.749v2.75h3.231c0,0.99,0,1.38-.064,2.34h-4.095v2.85H495.6c-0.575,2.14-1.247,3.29-4.127,5.08l2.784,2.15c2.591-2.18,3.839-3.75,4.511-7.23h2.592v6.65h3.3v-6.65h3.968Zm1.631-15.49h-5.5V9525h5.5v1.28Zm0,3.55h-5.5v-1.38h5.5v1.38Zm-8.895,9.09h-2.3c0.032-.61.032-0.99,0.064-2.34h2.24v2.34Zm-2.016-6.59v-9.83H486.989v26.43h3.552v-16.6h8.8Zm-3.232-6.05h-5.567V9525h5.567v1.28Zm0,3.55h-5.567v-1.38h5.567v1.38Zm49.695,9.95-3.135-2.59c-3.136,6.14-7.424,7.26-9.216,7.26a3.078,3.078,0,0,1-2.816-1.34c-0.608-1.09-.608-4.19-0.608-5.66a120.906,120.906,0,0,1,.9-12.8,2.052,2.052,0,0,0,.9-0.93c0-.19-0.288-0.42-1.056-0.51l-4.255-.61c0.1,2.14-.16,11.65-0.16,13.6,0,7.68.512,9.31,2.016,10.62a7.091,7.091,0,0,0,4.671,1.63,11.541,11.541,0,0,0,6.368-2.04A23.826,23.826,0,0,0,545.8,9539.78Zm33.824-13.15v-3.84c-6.239,1.83-15.807,2.91-23.326,2.98l0.64,3.77c3.808-.7,8.127-1.05,12.191-1.37-1.5,1.4-6.207,5.82-6.207,11.29,0,7.14,8,8.8,10.591,9.35l1.12-4.04a9.47,9.47,0,0,1-5.568-1.53,5.483,5.483,0,0,1-2.368-4.48c0-3.2,2.656-6.75,5.472-9.03A12.423,12.423,0,0,1,579.627,9526.63Zm35.872,12.8a27.241,27.241,0,0,0-5.247-13.6l-3.3,1.6a29.768,29.768,0,0,1,4.7,12.99Zm-14.111-.48-2.656-2.37c-0.608,1.54-1.919,4.93-3.071,4.93-0.64,0-2.176-1.15-2.176-7.39a33.215,33.215,0,0,1,.608-7.14c0.544-.19.928-0.32,0.928-0.67a0.869,0.869,0,0,0-.736-0.61l-3.52-.96a31.235,31.235,0,0,0-.96,8.32c0,6.08,1.024,9.83,3.264,12a3.5,3.5,0,0,0,2.368,1.06C598.028,9546.12,599.628,9542.73,601.388,9538.95Zm44.767,4.9a26.513,26.513,0,0,0-8.1-3.62c-0.1-1.89-.1-2.21-0.16-3.81a67.468,67.468,0,0,0,6.847-.8v-3.49c-2.943.55-4.127,0.74-6.911,1.09v-3.77c1.6-.04,4.576-0.1,8.127-0.1l0.128-3.39c-3.007.22-4.1,0.29-8.191,0.48,0.032-1.66.064-2.27,0.064-2.3a1.059,1.059,0,0,1,.416-0.58,0.717,0.717,0,0,0,.416-0.45c0-.22-0.192-0.32-0.8-0.38l-3.9-.39,0.1,4.26c-2.848.06-4.575,0.13-8.223,0.13l0.064,3.45c2.752-.32,4.576-0.45,8.255-0.61l0.064,4a20.087,20.087,0,0,1-2.208.07c-0.544,0-1.216,0-1.216-.45a1.943,1.943,0,0,1,1.056-1.18l-1.823-1.57c-1.248.89-3.424,2.4-3.424,3.97,0,1.24,1.472,2.3,4.415,2.3,0.928,0,2.688-.06,3.264-0.1l0.064,3.08-0.9-.04c-7.2-.25-7.519,3.46-7.519,4.39,0,2.59,2.752,4.16,7.167,4.16,4.1,0,4.864-1.28,4.992-4.55a24.266,24.266,0,0,1,5.856,3.17Zm-11.647-1.12c0.032,1.79-.1,2.36-2.176,2.36-0.384,0-2.431,0-2.431-1.08,0-.84,1.023-1.38,3.1-1.38A7.682,7.682,0,0,1,634.508,9542.73ZM682,9529.06v-3.45c-3.264.25-4.255,0.35-8.7,0.61v-3.3a0.455,0.455,0,0,1,.256-0.38,0.58,0.58,0,0,0,.288-0.48c0-.32-0.192-0.42-0.928-0.45l-3.552-.23c0.192,2.34.192,4.04,0.224,5.03-6.719.32-9.471,0.32-11.647,0.32v3.71c4.064-.51,8.895-0.8,11.743-0.96l0.064,2.4a4.217,4.217,0,0,0-1.5-.26c-3.264,0-5.023,2.43-5.023,5.95a5.728,5.728,0,0,0,1.663,4.45,4,4,0,0,0,2.624.99,6.135,6.135,0,0,0,1.728-.32c-0.7,2.34-2.656,4-4.576,5.25l3.584,1.86a22.387,22.387,0,0,0,4.352-5.95,14.355,14.355,0,0,0,1.632-6.18,8.191,8.191,0,0,0-.928-3.9v-4.48C677.452,9529.13,679.563,9529.06,682,9529.06Zm-11.647,8.1c0,2.27-1.536,2.97-2.208,2.97-0.736,0-1.76-.73-1.76-2.65,0-1.7.9-2.82,2.176-2.82a1.667,1.667,0,0,1,1.184.45A2.986,2.986,0,0,1,670.348,9537.16Zm24.481,2.4a4.934,4.934,0,0,0-4.96,4.93,4.944,4.944,0,1,0,9.887,0A4.926,4.926,0,0,0,694.829,9539.56Zm0,1.53a3.4,3.4,0,1,1-3.424,3.4A3.4,3.4,0,0,1,694.829,9541.09Z" transform="translate(-45.594 -9521.19)"/>
</svg>
