<svg xmlns="http://www.w3.org/2000/svg" width="274.156" height="30.84" viewBox="0 0 274.156 30.84">
  <defs>
    <style>
      .cls-1 {
        fill-rule: evenodd;
      }
    </style>
  </defs>
  <path id="カレンダーをみる" class="cls-1" d="M247.781,8495.42H237.106a45.151,45.151,0,0,0,.238-4.63,0.785,0.785,0,0,1,.306-0.81,0.647,0.647,0,0,0,.374-0.51c0-.21-0.034-0.38-0.952-0.45l-4.012-.34a56.6,56.6,0,0,1-.17,6.74h-9.859v3.74h9.315a22.276,22.276,0,0,1-2.753,7.41,19.87,19.87,0,0,1-7.854,7.34l3.434,2.72a22.284,22.284,0,0,0,8.125-8.36,31.693,31.693,0,0,0,3.264-9.11h6.969c-0.136,5.03-1.02,10.47-2.346,12.23a2.158,2.158,0,0,1-2.141.96,27.828,27.828,0,0,1-3.468-.38l1.938,4.39c3.841-.04,5.575-0.48,6.9-2.25C245.741,8512.31,247.577,8506.26,247.781,8495.42Zm36.516,6.93-2.074-3.74a47.222,47.222,0,0,1-8.125,7.01,24.784,24.784,0,0,1-8.363,3.84v-17.07c0-.14.034-0.17,0.543-0.58a0.62,0.62,0,0,0,.34-0.47,1,1,0,0,0-.917-0.48l-4.046-.51v22.47l2.312,2.35C271.14,8512.86,279.163,8508.06,284.3,8502.35Zm19.347-7.95a31.781,31.781,0,0,0-7.139-4.22l-2.074,3.2a30.5,30.5,0,0,1,6.97,4.28Zm16.183,3.53-2.346-3.4a47.521,47.521,0,0,1-9.961,10.41,32.027,32.027,0,0,1-12.613,5.88l2.38,4.08a1.041,1.041,0,0,0,.748.64c0.272,0,.34-0.58.51-1.05a45.719,45.719,0,0,0,12.817-7.58A47.809,47.809,0,0,0,319.827,8497.93Zm38.725-8.09a16.6,16.6,0,0,0-2.787-3.57l-1.734,1.4a18.593,18.593,0,0,1,2.686,3.56Zm-4.351,1.33a14.893,14.893,0,0,0-2.55-3.23l-1.8,1.49a13.488,13.488,0,0,1,2.482,3.16Zm-0.476,4.93-2.584-2.93a4,4,0,0,1-1.53.82h-7.785a30,30,0,0,0,1.5-2.69,0.968,0.968,0,0,1,.408-0.61c0.544-.24.68-0.31,0.68-0.48a0.849,0.849,0,0,0-.68-0.51l-3.842-1.15c-1.53,4.45-4.895,10.03-9.587,13.26l3.094,2.38a32.684,32.684,0,0,0,6.289-6.87h8.6a19.166,19.166,0,0,1-2.991,6.32,35.691,35.691,0,0,0-5.95-3.36l-2.039,2.58a40.794,40.794,0,0,1,5.745,3.67,25.866,25.866,0,0,1-11.151,7.31l3.06,3.2c5.167-2.65,7.819-4.66,10.845-7.96a20.1,20.1,0,0,1,2.617,2.48l2.516-2.92c-1.394-1.39-2.108-2-2.822-2.62a35.837,35.837,0,0,0,4.114-8.16A3.234,3.234,0,0,1,353.725,8496.1Zm36.074,8.8v-4.32H365.627v4.32H389.8Zm35.564-2.45-1.156-3.87c-1.6.71-2.04,0.92-6.017,2.79a4.556,4.556,0,0,0-4.624-3.44,6.474,6.474,0,0,0-2.924.72c0.578-.89.85-1.36,1.938-3.37a71.921,71.921,0,0,0,8.125-1.29l0.238-3.81a28.821,28.821,0,0,1-6.663,1.73c0.17-.37,1.02-2.27,1.054-2.31,0.034,0,.714-0.3.782-0.34a0.4,0.4,0,0,0,.34-0.37,0.869,0.869,0,0,0-.68-0.34l-4.25-.75a26.047,26.047,0,0,1-1.7,4.52,48.279,48.279,0,0,1-6.493-.13l0.408,3.53c1.428,0,2.482-.03,4.42-0.13a45.368,45.368,0,0,1-6.7,9.35l3.332,2.07c1.87-3.06,3.91-6.15,7.241-6.15a2.353,2.353,0,0,1,2.584,2.24c-5.1,2.62-8.227,4.22-8.227,8.43a4.639,4.639,0,0,0,1.292,3.33c2.141,2.28,6.085,2.28,7.989,2.28a56.257,56.257,0,0,0,8.091-.51v-3.84a39.666,39.666,0,0,1-8.669,1.09c-2.482,0-5.1-.45-5.1-2.66,0-2.38,3.536-4.14,4.828-4.79-0.034,1.5-.068,3.16-0.17,5.1H418.6c0-1.16-.068-5.37-0.068-6.7C421.045,8503.88,422.677,8503.3,425.363,8502.45Zm37.74,4.46c-1.462-.95-2.516-1.6-4.386-2.65a41.084,41.084,0,0,0,1.156-5.07,0.763,0.763,0,0,1,.374-0.71c0.476-.24.51-0.28,0.51-0.45a0.976,0.976,0,0,0-.816-0.57l-3.808-1.06a28.853,28.853,0,0,1-.884,6.22,22.177,22.177,0,0,0-6.561-1.56c0.476-1.05,2.89-6.53,2.924-6.66a13.637,13.637,0,0,1,1.768-2.89l-2.244-2.25c-1.836,1.19-5.848,1.87-11.083,1.84l1.53,3.43a23.593,23.593,0,0,0,6.187-1.05c-0.986,3.09-1.768,5.03-2.754,7.38a9.094,9.094,0,0,0-5.405,1.63,8.446,8.446,0,0,0-4.012,6.73c0,2.51,1.53,4.38,3.842,4.38,2.992,0,4.454-2.17,7.819-9.38a20.963,20.963,0,0,1,6.8,1.91c-2.04,4.31-3.774,6.05-6.766,7.98l3.366,2.35a19,19,0,0,0,6.731-8.46c0.782,0.5,1.734,1.15,3.536,2.54Zm-19.616-2.59a38.248,38.248,0,0,1-2.244,4.22,1.546,1.546,0,0,1-1.428.81c-0.238,0-.68-0.03-0.68-0.91C439.135,8507.18,440.563,8505.24,443.487,8504.32Zm52.426,2.38a7.491,7.491,0,0,0-7.547-7.51,26.915,26.915,0,0,0-3.3.2c4.93-5.03,5.507-5.57,7.547-7.27l-1.768-2.76c-3.229,1.26-9.009,1.7-10.3,1.7-1.053,0-2.991-.13-3.807-0.2l0.782,3.81a32.323,32.323,0,0,0,7.955-.85,67.174,67.174,0,0,1-12.579,12.27l2.856,2.99c1.9-1.93,4.9-4.96,7-6.08a9.251,9.251,0,0,1,3.876-.85c2.21,0,5.507,1.09,5.507,4.45a6,6,0,0,1-2.243,4.52c-0.952-1.19-3.162-3.97-6.7-3.97a4.759,4.759,0,0,0-5,4.52c0,2.51,2.176,4.65,6.425,4.65C490.609,8516.32,495.913,8512.35,495.913,8506.7Zm-9.179,6.09a9.847,9.847,0,0,1-2.312.3c-1.224,0-2.788-.34-2.788-1.53a1.494,1.494,0,0,1,1.7-1.42C485.272,8510.14,486.292,8512.01,486.734,8512.79Z" transform="translate(-221.75 -8486.28)"/>
</svg>
