<svg xmlns="http://www.w3.org/2000/svg" width="163.094" height="28.25" viewBox="0 0 163.094 28.25">
  <defs>
    <style>
      .cls-1 {
        fill-rule: evenodd;
      }
    </style>
  </defs>
  <path id="店舗一覧へ" class="cls-1" d="M321.754,9877.38v-3.32H310.043v-1.8a0.741,0.741,0,0,1,.384-0.35,0.809,0.809,0,0,0,.448-0.48,0.625,0.625,0,0,0-.7-0.48l-4.191-.25v3.36h-9.6v9.05c0,7.71-1.952,11.46-3.072,13.6l3.488,1.31a28.041,28.041,0,0,0,2.24-6.37,41.11,41.11,0,0,0,1.024-9.24v-5.03h6.815v9.54H301.02v11.45h3.52v-0.83h11.071v0.83h3.712v-11.45h-8.768v-3.23h10.783v-3.3H310.555v-1.57a0.9,0.9,0,0,0,.7-0.57,0.985,0.985,0,0,0-.9-0.48l-1.952-.39h13.343Zm-6.143,16.93H304.54v-3.97h11.071v3.97Zm39.9-17.21v-2.92h-3.391l1.728-.8a11.932,11.932,0,0,0-1.536-2.72l-2.5,1.06a0.331,0.331,0,0,0,.128-0.26,0.539,0.539,0,0,0-.576-0.38l-3.488-.42v3.52h-5.695v1.25a11.231,11.231,0,0,1-3.936-3.87,0.23,0.23,0,0,0,.192-0.19,0.352,0.352,0,0,0-.32-0.19l-3.072-.9a18.613,18.613,0,0,1-6.144,7.17l2.784,2.21a1.41,1.41,0,0,0,.16-0.13v2.49H332.8v1.7h-4.7v2.69H339.8v-2.69h-3.616v-1.7h2.944v-2.72h-2.944v-1.53a3.516,3.516,0,0,1,.736-0.61,13.567,13.567,0,0,0,1.568,1.28l1.7-1.57v0.23h5.695v2.14H340.22v19.2h3.039v-6.37h2.624v6.37h3.136v-6.37H351.8v2.05a0.932,0.932,0,0,1-.928.96,12.24,12.24,0,0,1-1.536-.1l1.184,3.55c3.647-.03,4.351-0.89,4.351-2.62v-16.67h-5.855v-2.14h6.5Zm-3.711,7.16h-2.784v-2.33H351.8v2.33Zm0,5.25h-2.784v-2.62H351.8v2.62Zm-5.92-5.25h-2.624v-2.33h2.624v2.33Zm0,5.25h-2.624v-2.62h2.624v2.62Zm-9.727,4.99h-4v-4.22h4v4.22Zm3.072,3.94v-10.91H329.052v10.91h3.1v-0.93h4v0.93h3.072Zm11.647-24.26h-1.856v-1.72a1.54,1.54,0,0,1,.576-0.55A5.461,5.461,0,0,1,350.875,9874.18Zm-14.623,2.31-3.392-.13c0.544-.61,1.248-1.41,1.6-1.89A20.7,20.7,0,0,0,336.252,9876.49Zm-3.456,2.81h-2.72c1.024-.96,1.984-2.01,2.72-2.84v2.84Zm55.87,7.43v-4.42H361.724v4.42h26.942Zm33.856-10.85v-2.78h-8.607c0.064-.16.352-0.93,0.384-0.96,0.1-.1.736-0.36,0.832-0.45a0.342,0.342,0,0,0,.064-0.19,0.645,0.645,0,0,0-.576-0.42l-3.552-.77a15.618,15.618,0,0,1-3.008,6.18v-2.21h-3.9v-1.18h4.671v-2.21H395.452v11.1h13.311v-2.08h-4.607v-1.05h3.9v-1.41l2.688,1.47a29.168,29.168,0,0,0,1.792-3.04h9.983Zm-17.246,1.18h-6.752v-1.08h6.752v1.08Zm-4.352-2.78h-2.4v-1.18h2.4v1.18Zm0,5.63h-2.4v-1.05h2.4v1.05Zm19.871,1.38v-3.11h-9.312v3.11H420.8Zm2.175,11.74-3.2-1.31c-0.256,1.95-.48,3.49-2.048,3.49h-3.584a0.915,0.915,0,0,1-.992-0.8v-1.22H419v-10.33H398.4v10.33h4.64c-1.184,1.12-2.592,2.24-8.448,2.11l2.016,3.23c5.536-.12,8.288-2.43,9.088-3.2,0.224-.03,1.12-0.16,1.12-0.6a0.86,0.86,0,0,0-.48-0.61l-2.016-.93h4.863v2.53c0,1.41,1.024,2.49,2.944,2.49h6.912a3.068,3.068,0,0,0,3.1-1.98A11.932,11.932,0,0,0,422.97,9893.03Zm-7.487-4.61H401.948v-0.89h13.535v0.89Zm0-2.4H401.948v-0.89h13.535v0.89Zm0,4.93H401.948v-0.96h13.535v0.96Zm40.927-.58c-3.967-2.72-7.167-6.11-12.9-12.67-1.536-1.79-2.208-2.52-3.711-2.52-1.824,0-2.944,1.56-3.424,2.2-3.136,4.23-5.056,6.85-7.968,9.44l3.584,2.31c1.7-1.86,5.152-6.5,6.208-7.94a2.621,2.621,0,0,1,1.856-1.31c0.8,0,1.183.51,2.239,1.82a77.144,77.144,0,0,0,11.232,12.13Z" transform="translate(-293.312 -9870.28)"/>
</svg>
